<?xml version="1.0" encoding="utf-8"?>
<!-- Generator: Adobe Illustrator 27.7.0, SVG Export Plug-In . SVG Version: 6.00 Build 0)  -->
<svg version="1.1" id="Layer_1" xmlns="http://www.w3.org/2000/svg" xmlns:xlink="http://www.w3.org/1999/xlink" x="0px" y="0px"
	 viewBox="0 0 512 512" style="enable-background:new 0 0 512 512;" xml:space="preserve">
<g>
	<path d="M128,256l-18.1,18.1L219.8,384l-20.3,20.3l-0.29,0.3c-12.8,13.2-29.6,19.74-46.65,19.77
		c-16.34-0.03-32.47-6.02-45.15-18.28c-13.2-12.8-19.74-29.6-19.77-46.65c0.03-16.34,6.02-32.47,18.28-45.15l-18.39-17.81l18.1,18.1
		l2.08-2.08l38.4-38.4L128,256l-18.1,18.1L128,256l-18.1-18.1l-38.4,38.4l-2.08,2.08l-0.29,0.3
		c-21.78,22.48-32.72,51.75-32.69,80.76c-0.03,30.26,11.87,60.73,35.36,83.44c22.48,21.78,51.75,32.72,80.76,32.69
		c30.26,0.03,60.73-11.87,83.44-35.36L217.6,422.4l18.1,18.1l38.4-38.4c4.77-4.77,7.5-11.36,7.5-18.1s-2.73-13.34-7.5-18.1l-128-128
		c-10-10-26.21-10-36.2,0L128,256z"/>
	<path d="M384,256l18.1-18.1L292.2,128l20.3-20.3l0.29-0.3c12.8-13.2,29.6-19.74,46.65-19.77c16.34,0.03,32.47,6.02,45.15,18.28
		c13.2,12.8,19.74,29.6,19.77,46.65c-0.03,16.34-6.02,32.47-18.28,45.15l18.39,17.81l-18.1-18.1l-2.08,2.08l-38.4,38.4L384,256
		l18.1-18.1L384,256l18.1,18.1l38.4-38.4l2.08-2.08l0.29-0.3c21.78-22.48,32.72-51.75,32.69-80.76
		c0.03-30.26-11.87-60.73-35.36-83.44c-22.48-21.78-51.75-32.72-80.76-32.69c-30.26-0.03-60.73,11.87-83.44,35.36L294.4,89.6
		l-18.1-18.1l-38.4,38.4c-10,10-10,26.21,0,36.2l128,128c4.77,4.77,11.36,7.5,18.1,7.5c6.74,0,13.34-2.73,18.1-7.5L384,256z"/>
	<path d="M43.7,504.5l64-64c10-10,10-26.21,0-36.2c-10-10-26.21-10-36.2,0l-64,64c-10,10-10,26.21,0,36.2
		C17.5,514.5,33.7,514.5,43.7,504.5"/>
	<path d="M440.5,107.7l64-64c10-10,10-26.21,0-36.2c-10-10-26.21-10-36.2,0l-64,64c-10,10-10,26.21,0,36.2
		C414.3,117.7,430.5,117.7,440.5,107.7"/>
	<path d="M186.7,212.3l-51.2,51.2c-10,10-10,26.21,0,36.2c10,10,26.21,10,36.2,0l51.2-51.2c10-10,10-26.21,0-36.2
		C212.9,202.3,196.7,202.3,186.7,212.3"/>
	<path d="M263.5,289.1l-51.2,51.2c-10,10-10,26.21,0,36.2c10,10,26.21,10,36.2,0l51.2-51.2c10-10,10-26.21,0-36.2
		C289.7,279.1,273.5,279.1,263.5,289.1"/>
</g>
</svg>
