<?xml version="1.0" encoding="UTF-8"?>
<svg version="1.1" xmlns="http://www.w3.org/2000/svg" width="300" height="63">
<path d="M0 0 C2.97 0 5.94 0 9 0 C9.48005436 3.33320764 9.95906893 6.6665593 10.4375 10 C10.57220703 10.93457031 10.70691406 11.86914062 10.84570312 12.83203125 C10.97783203 13.75371094 11.10996094 14.67539063 11.24609375 15.625 C11.42676392 16.88183594 11.42676392 16.88183594 11.61108398 18.1640625 C12.10584679 21.77182446 12.54832386 25.38659091 13 29 C14.32 19.43 15.64 9.86 17 0 C19.31 0 21.62 0 24 0 C25.61694418 6.46777673 26.55671164 12.88780226 27.30224609 19.50195312 C27.64592354 22.48481399 28.04697781 25.14093344 29 28 C29.08564209 27.18732666 29.17128418 26.37465332 29.25952148 25.53735352 C29.64764956 21.87857159 30.04248266 18.22054426 30.4375 14.5625 C30.57220703 13.28310547 30.70691406 12.00371094 30.84570312 10.68554688 C30.97783203 9.47060547 31.10996094 8.25566406 31.24609375 7.00390625 C31.36654053 5.87799072 31.4869873 4.7520752 31.61108398 3.59204102 C32 1 32 1 33 0 C35.67058851 -0.14115161 38.32432238 -0.04247107 41 0 C41.17737915 7.12202759 40.50123552 13.88292081 39.50390625 20.9296875 C39.35090561 22.04183624 39.19790497 23.15398499 39.04026794 24.29983521 C38.71778996 26.63485931 38.39238938 28.96948147 38.06420898 31.30371094 C37.5612583 34.88383875 37.06799019 38.46520261 36.57617188 42.046875 C36.26098105 44.32039081 35.9452451 46.59383114 35.62890625 48.8671875 C35.48095108 49.9390329 35.33299591 51.0108783 35.18055725 52.11520386 C35.04048752 53.10698639 34.90041779 54.09876892 34.75610352 55.12060547 C34.63396988 55.99280731 34.51183624 56.86500916 34.38600159 57.76364136 C34 60 34 60 33 63 C30.69 63 28.38 63 26 63 C24.11352564 57.08631297 23.19808416 51.20623535 22.375 45.0625 C22.2409375 44.09248047 22.106875 43.12246094 21.96875 42.12304688 C21.64133338 39.7492764 21.31853591 37.37497563 21 35 C20.88406494 35.77714355 20.76812988 36.55428711 20.64868164 37.35498047 C20.12346637 40.86219012 19.59305049 44.36859364 19.0625 47.875 C18.88009766 49.09832031 18.69769531 50.32164063 18.50976562 51.58203125 C18.33251953 52.74863281 18.15527344 53.91523437 17.97265625 55.1171875 C17.81031494 56.19597168 17.64797363 57.27475586 17.48071289 58.38623047 C17 61 17 61 16 63 C13.69 63 11.38 63 9 63 C6.94924491 56.70293593 6.11394837 50.38397937 5.2734375 43.828125 C5.12089508 42.66875427 4.96835266 41.50938354 4.81118774 40.31488037 C4.49110665 37.87447011 4.17355981 35.43372627 3.85839844 32.99267578 C3.37477592 29.24826504 2.88337346 25.50493841 2.390625 21.76171875 C2.08027597 19.38808004 1.77036486 17.01438403 1.4609375 14.640625 C1.31409515 13.51875793 1.16725281 12.39689087 1.01596069 11.24102783 C0.88227081 10.20274841 0.74858093 9.16446899 0.61083984 8.09472656 C0.49251801 7.18096252 0.37419617 6.26719849 0.25228882 5.32574463 C0 3 0 3 0 0 Z " fill="#003E7E" transform="translate(91,0)"/>
<path d="M0 0 C10.89 0 21.78 0 33 0 C34.38783585 3.46958962 35.37974354 6.24591552 36.125 9.8125 C36.37636719 10.99779297 36.37636719 10.99779297 36.6328125 12.20703125 C36.75398438 12.79871094 36.87515625 13.39039063 37 14 C37.33 14 37.66 14 38 14 C38.20496094 13.07316406 38.40992188 12.14632813 38.62109375 11.19140625 C38.89050781 9.99386719 39.15992188 8.79632813 39.4375 7.5625 C39.70433594 6.36753906 39.97117188 5.17257812 40.24609375 3.94140625 C41 1 41 1 42 0 C44.67058851 -0.14115161 47.32432238 -0.04247107 50 0 C49.4925656 5.44223398 48.39110046 10.33404422 46.82861328 15.56420898 C42.76130213 29.36118992 41.9757776 42.67245324 42 57 C39.03 57 36.06 57 33 57 C33.00112793 56.33282959 33.00225586 55.66565918 33.00341797 54.97827148 C32.93854431 38.4735657 30.95956052 23.75016984 26 8 C25.67 8.33 25.34 8.66 25 9 C22.36 9 19.72 9 17 9 C17 24.84 17 40.68 17 57 C14.03 57 11.06 57 8 57 C8 41.16 8 25.32 8 9 C5.36 9 2.72 9 0 9 C0 6.03 0 3.06 0 0 Z " fill="#F7941D" transform="translate(40,6)"/>
<path d="M0 0 C2.64 0 5.28 0 8 0 C8.98245973 3.39488938 9.96038333 6.79106929 10.9375 10.1875 C11.21529297 11.14720703 11.49308594 12.10691406 11.77929688 13.09570312 C12.04677734 14.02705078 12.31425781 14.95839844 12.58984375 15.91796875 C12.95903931 17.19837036 12.95903931 17.19837036 13.33569336 18.50463867 C13.99409133 20.97780504 14.49807908 23.49039541 15 26 C15.33 17.42 15.66 8.84 16 0 C18.64 0 21.28 0 24 0 C24 18.81 24 37.62 24 57 C21.36 57 18.72 57 16 57 C13.69 48.42 11.38 39.84 9 31 C8.67 39.58 8.34 48.16 8 57 C5.36 57 2.72 57 0 57 C0 38.19 0 19.38 0 0 Z " fill="#003E7E" transform="translate(161,6)"/>
<path d="M0 0 C14.63157895 0 14.63157895 0 19.8125 4.375 C24.02661614 9.43193937 23.52704245 15.66655766 23 22 C22.17161185 24.91206387 21.18772326 27.81227674 19 30 C19.26771403 31.75839874 19.61585465 33.50464464 19.99609375 35.2421875 C20.33930664 36.84126953 20.33930664 36.84126953 20.68945312 38.47265625 C20.93630859 39.59542969 21.18316406 40.71820313 21.4375 41.875 C21.91804361 44.08014706 22.39602679 46.28585409 22.87109375 48.4921875 C23.08693115 49.47558105 23.30276855 50.45897461 23.52514648 51.47216797 C24 54 24 54 24 57 C21.03 57 18.06 57 15 57 C14.32706711 53.93875617 13.66146055 50.87622439 13 47.8125 C12.80921875 46.94818359 12.6184375 46.08386719 12.421875 45.19335938 C12.24140625 44.35224609 12.0609375 43.51113281 11.875 42.64453125 C11.70742187 41.87471924 11.53984375 41.10490723 11.3671875 40.31176758 C10.97449085 37.83939753 10.93814715 35.49924191 11 33 C10.34 33 9.68 33 9 33 C9 40.92 9 48.84 9 57 C6.03 57 3.06 57 0 57 C0 38.19 0 19.38 0 0 Z M9 9 C9 14.28 9 19.56 9 25 C12.93052488 24.46730289 12.93052488 24.46730289 14.25 22.3125 C15.45612202 18.59362378 15.45612202 15.40637622 14.25 11.6875 C12.93052488 9.53269711 12.93052488 9.53269711 9 9 Z " fill="#003E7E" transform="translate(242,6)"/>
<path d="M0 0 C14.18518519 0 14.18518519 0 19.375 3.6875 C24.03368 10.31716 23.34017557 18.53577099 23.31567383 26.27832031 C23.31251792 28.3631646 23.33600726 30.44658086 23.36132812 32.53125 C23.39681311 39.9132293 23.0368437 46.19805273 20 53 C14.03732519 58.02119984 7.63116974 57 0 57 C0 38.19 0 19.38 0 0 Z M9 9 C9 21.87 9 34.74 9 48 C13 46.5 13 46.5 14 44 C14.23499987 39.6111994 14.22840041 35.21856349 14.24023438 30.82421875 C14.24993234 28.64023646 14.28095131 26.45719855 14.3125 24.2734375 C14.31903108 22.88281808 14.32428114 21.49219194 14.328125 20.1015625 C14.3374707 18.83650879 14.34681641 17.57145508 14.35644531 16.26806641 C13.98065845 12.82266714 13.46683784 11.39251741 11 9 C10.34 9 9.68 9 9 9 Z " fill="#003E7E" transform="translate(191,6)"/>
<path d="M0 0 C3.85534897 1.75885574 5.69825574 4.30050194 7.375 8.1875 C8.14555969 12.88791409 8.13044402 17.23879344 8 22 C4.7 22 1.4 22 -2 22 C-2.33 18.04 -2.66 14.08 -3 10 C-3.99 10 -4.98 10 -6 10 C-7.65702967 13.31405935 -7.14162705 17.01378048 -7.1328125 20.65625 C-7.13376923 21.51432251 -7.13472595 22.37239502 -7.13571167 23.25646973 C-7.13639272 25.07218499 -7.13454367 26.88790268 -7.13037109 28.70361328 C-7.12502178 31.48866221 -7.13031861 34.27354986 -7.13671875 37.05859375 C-7.13605796 38.82031286 -7.13477676 40.58203186 -7.1328125 42.34375 C-7.13483673 43.18023071 -7.13686096 44.01671143 -7.13894653 44.87854004 C-7.23616131 49.07280044 -7.23616131 49.07280044 -6 53 C-5.01 53 -4.02 53 -3 53 C-2.67 49.04 -2.34 45.08 -2 41 C1.3 41 4.6 41 8 41 C8.33141346 48.95392312 8.19054823 55.24641384 2.875 61.5 C-1.16137733 63.605936 -4.538047 63.78555511 -9 63 C-13.09021276 60.91770987 -15.30868005 59.24102313 -17 55 C-17.26742554 52.77505493 -17.26742554 52.77505493 -17.29052734 50.32666016 C-17.30328705 49.40535309 -17.31604675 48.48404602 -17.32919312 47.53482056 C-17.33141876 46.5462204 -17.33364441 45.55762024 -17.3359375 44.5390625 C-17.3425943 43.51573822 -17.3492511 42.49241394 -17.35610962 41.43807983 C-17.36622899 39.27449337 -17.37092686 37.11087573 -17.37060547 34.94726562 C-17.37497486 31.64400559 -17.41129259 28.34208587 -17.44921875 25.0390625 C-17.45508785 22.93490039 -17.45905662 20.83073195 -17.4609375 18.7265625 C-17.47530853 17.7420108 -17.48967957 16.75745911 -17.50448608 15.74307251 C-17.46635472 9.99472223 -16.95554503 6.49774369 -13 2 C-8.73903503 -0.84064331 -5.00013001 -0.74652019 0 0 Z " fill="#F7931D" transform="translate(17,0)"/>
<path d="M0 0 C3.0659282 1.5836406 5.5124179 3.54694823 6.6461792 6.9256897 C7.25507988 10.49543168 7.18425994 14.09935102 7.203125 17.7109375 C7.20882507 18.55669342 7.21452515 19.40244934 7.22039795 20.27383423 C7.22983001 22.0607987 7.2363748 23.84778043 7.24023438 25.63476562 C7.24994078 28.35838347 7.28098097 31.08124658 7.3125 33.8046875 C7.31903066 35.54426637 7.32428088 37.28385062 7.328125 39.0234375 C7.3404718 39.83299896 7.3528186 40.64256042 7.36553955 41.47665405 C7.34301382 47.23696656 6.25877992 51.39371548 2.375 55.875 C-1.36921303 57.64857459 -4.94727803 57.80187547 -9 57 C-12 54.5625 -12 54.5625 -14 52 C-14.33 51.67 -14.66 51.34 -15 51 C-15.11355251 49.61504783 -15.15951302 48.22445034 -15.17700195 46.83496094 C-15.18983719 45.95024109 -15.20267242 45.06552124 -15.21589661 44.1539917 C-15.22328354 43.19051819 -15.23067047 42.22704468 -15.23828125 41.234375 C-15.246353 40.24882629 -15.25442474 39.26327759 -15.26274109 38.24786377 C-15.27660169 36.15630869 -15.28731496 34.0647308 -15.29516602 31.97314453 C-15.31235355 28.77723056 -15.35621925 25.58235749 -15.40039062 22.38671875 C-15.41051929 20.35677846 -15.41903485 18.32682935 -15.42578125 16.296875 C-15.44328934 15.34149841 -15.46079742 14.38612183 -15.47883606 13.40179443 C-15.46472591 9.07393697 -15.41377367 6.67041003 -13.09838867 2.91894531 C-9.14547449 -0.69593606 -5.17276306 -0.78112194 0 0 Z M-5 8 C-7.50466599 11.75699899 -7.30596184 14.74530358 -7.30078125 19.09765625 C-7.30506638 19.88772568 -7.3093515 20.6777951 -7.31376648 21.49180603 C-7.31950516 23.16029909 -7.32001343 24.82881717 -7.31567383 26.49731445 C-7.31250732 29.05658274 -7.33599998 31.61470224 -7.36132812 34.17382812 C-7.36360044 35.79426937 -7.36430493 37.41471373 -7.36328125 39.03515625 C-7.372491 39.80287857 -7.38170074 40.57060089 -7.39118958 41.36158752 C-7.40534992 43.74281321 -7.40534992 43.74281321 -7 47 C-6.01 47.66 -5.02 48.32 -4 49 C-3.01 48.505 -3.01 48.505 -2 48 C-2 35.13 -2 22.26 -2 9 C-2.99 8.67 -3.98 8.34 -5 8 Z " fill="#003E7E" transform="translate(149,6)"/>
<path d="M0 0 C3.32672971 2.1234445 4.64187858 3.76542353 5.7421875 7.55859375 C6.25505032 10.03508888 6.67380591 12.4926872 7 15 C2.545 15.495 2.545 15.495 -2 16 C-2.66 13.69 -3.32 11.38 -4 9 C-4.66 9 -5.32 9 -6 9 C-6.97570418 11.92711255 -7.3587954 14.09688573 -6.19921875 17.015625 C-4.88030993 19.40426769 -3.47219966 21.70236801 -2 24 C-1.07960938 25.44439453 -1.07960938 25.44439453 -0.140625 26.91796875 C1.07824008 28.82433417 2.30671986 30.72460292 3.546875 32.6171875 C5.87430188 36.43366707 6.18424855 39.48061137 6.25 43.875 C6.27578125 44.90367188 6.3015625 45.93234375 6.328125 46.9921875 C5.94943732 50.46349125 5.12838072 52.24844474 3 55 C0.17274739 56.92345874 -2.11621947 57.27317658 -5.5 57.25 C-6.2528125 57.25515625 -7.005625 57.2603125 -7.78125 57.265625 C-11.32182267 56.84175362 -13.39745223 55.7141307 -15.6875 53 C-17.5423331 48.76038148 -17.74181277 44.58504904 -18 40 C-15.03 40 -12.06 40 -9 40 C-8.34 42.64 -7.68 45.28 -7 48 C-6.01 48 -5.02 48 -4 48 C-2.81988031 43.2236576 -3.0460327 40.96303297 -5.5625 36.75 C-6.39007813 35.33654297 -6.39007813 35.33654297 -7.234375 33.89453125 C-7.81703125 32.93933594 -8.3996875 31.98414062 -9 31 C-9.84304688 29.58267578 -9.84304688 29.58267578 -10.703125 28.13671875 C-11.7276657 26.41837501 -12.75944992 24.70431444 -13.80078125 22.99609375 C-15.9252644 19.45990192 -16.16214514 17.27305477 -16.1875 13.125 C-16.20167969 12.07570313 -16.21585937 11.02640625 -16.23046875 9.9453125 C-16.00181492 7.02319406 -15.57601834 5.43566471 -14 3 C-9.80970482 -0.55540197 -5.26715638 -0.97504528 0 0 Z " fill="#003E7E" transform="translate(284,6)"/>
<path d="M0 0 C6.27 0 12.54 0 19 0 C19 2.97 19 5.94 19 9 C15.7 9 12.4 9 9 9 C9 13.95 9 18.9 9 24 C11.31 24 13.62 24 16 24 C16 26.97 16 29.94 16 33 C13.69 33 11.38 33 9 33 C9 37.95 9 42.9 9 48 C12.3 48 15.6 48 19 48 C19 50.97 19 53.94 19 57 C12.73 57 6.46 57 0 57 C0 38.19 0 19.38 0 0 Z " fill="#003E7E" transform="translate(219,6)"/>
<path d="M0 0 C2.97 0 5.94 0 9 0 C9 18.81 9 37.62 9 57 C6.03 57 3.06 57 0 57 C0 38.19 0 19.38 0 0 Z " fill="#F6931E" transform="translate(29,6)"/>
<path d="M0 0 C2.64 0 5.28 0 8 0 C8 1.65 8 3.3 8 5 C5.69 5 3.38 5 1 5 C0.67 3.35 0.34 1.7 0 0 Z " fill="#003E7E" transform="translate(292,1)"/>
</svg>
