<svg width="201" height="94" viewBox="0 0 201 94" fill="none" xmlns="http://www.w3.org/2000/svg">
<g clip-path="url(#clip0)">
<path d="M117.947 46.7536H119.011C119.011 45.6974 121.068 44.2892 122.628 44.2892V43.233C121.139 43.233 119.295 44.1483 118.444 45.3453C117.522 44.2187 115.749 43.233 114.117 43.233V44.2892C115.962 44.2892 117.947 45.8382 117.947 46.7536Z" fill="#003E7E"/>
<path d="M75.7474 17.6734H76.8112C76.8112 16.6172 78.868 15.209 80.4284 15.209V14.1528C78.939 14.1528 77.0949 15.0682 76.2438 16.2652C75.3218 15.1386 73.5487 14.1528 71.9174 14.1528V15.209C73.6906 15.2794 75.7474 16.7581 75.7474 17.6734Z" fill="#003E7E"/>
<path d="M128.302 90.0569V85.0577H127.239V86.6067C126.6 86.0434 125.82 85.6914 124.898 85.6914C123.55 85.6914 122.416 84.5648 122.416 83.227C122.416 81.8891 123.55 80.7625 124.898 80.7625C125.395 80.7625 125.891 80.9034 126.246 81.185L126.884 81.6075L127.097 80.9034C127.38 79.988 128.161 78.9318 129.224 78.9318C130.43 78.9318 131.352 79.9176 131.352 81.0442C131.352 81.6075 130.998 82.3116 130.359 82.9453L129.721 83.6494L130.643 83.8607C131.21 84.0015 131.565 84.424 131.565 84.9873C131.565 85.621 131.068 86.1843 130.359 86.1843C129.934 86.1843 129.579 85.973 129.366 85.6914L128.515 86.2547C128.941 86.8884 129.65 87.2404 130.359 87.2404C131.565 87.2404 132.558 86.2547 132.558 85.0577C132.558 84.2831 132.132 83.579 131.565 83.227C131.99 82.6637 132.345 81.9595 132.345 81.185C132.345 79.4247 130.927 78.0165 129.154 78.0165C127.735 78.0165 126.742 79.0022 126.246 80.1288C125.82 79.9176 125.324 79.8472 124.827 79.8472C122.912 79.8472 121.281 81.3962 121.281 83.3678C121.281 85.2689 122.841 86.8884 124.827 86.8884C126.104 86.8884 127.097 87.9446 127.097 89.1416V90.2682H117.167C117.025 87.2404 115.607 84.7056 113.621 81.2554C112.557 79.3543 111.351 77.1715 110.075 74.4959V72.5243H110.571V71.4682H110.075H110.004V69.6375H108.018C106.741 66.6097 105.394 63.0187 104.33 58.9348H104.543H104.614V56.5408H105.11V55.4846H104.614H104.543H103.479C103.55 55.1326 103.692 54.7101 103.904 54.4989C104.046 54.3581 104.117 54.358 104.188 54.358H104.685V53.3019H102.841C102.699 52.4569 102.486 51.5416 102.344 50.6966H102.415V49.6404H102.131C101.848 48.021 101.635 46.3311 101.493 44.5708V43.5146H101.422C100.429 34.0794 100.004 22.2502 100.216 6.68914C100.784 6.4779 101.209 5.91461 101.209 5.2809C101.209 4.43595 100.571 3.80225 99.7198 3.80225C99.7198 3.66142 99.7908 3.5206 99.7908 3.45019C99.7908 2.67566 99.1524 2.04195 98.3723 2.04195H98.3013H98.1595V0H98.0886H97.0956H97.0247V1.68989H96.8829H96.8119C96.0318 1.68989 95.3934 2.3236 95.3934 3.09813C95.3934 3.23895 95.3934 3.37978 95.4644 3.45019C94.6133 3.45019 93.9749 4.15431 93.9749 4.92884C93.9749 5.56255 94.4005 6.12584 94.9679 6.33708C95.1807 24.3625 94.4005 38.5154 92.6983 49.2884C92.4855 50.5558 92.2728 51.7528 92.06 52.9498H90.2869V54.006H90.7833C90.8543 54.006 90.9961 54.006 91.067 54.1468C91.2798 54.3581 91.4217 54.7805 91.5635 55.1326H90.4996H90.4287H89.9322V56.1888H90.4287V58.5828H90.4996H90.7124C89.6486 62.7371 88.301 66.2577 87.0243 69.2854H85.1094V71.1161H85.0385H84.542V72.1723H85.0385V74.1438C83.7618 76.8195 82.5561 79.0022 81.4922 80.9034C79.5773 84.3536 78.1588 86.8884 77.946 89.9161H69.4351V84.9168H68.3712V86.4659C67.8038 85.9026 66.9527 85.5506 66.0307 85.5506C64.6831 85.5506 63.5483 84.424 63.5483 83.0861C63.5483 81.7483 64.6831 80.6217 66.0307 80.6217C66.5272 80.6217 67.0236 80.7625 67.3783 81.0442L68.0166 81.4667L68.2293 80.7625C68.513 79.8472 69.2932 78.791 70.3571 78.791C71.5628 78.791 72.4848 79.7768 72.4848 80.9034C72.4848 81.4667 72.1302 82.1708 71.4919 82.8045L70.8536 83.5086L71.7756 83.7198C72.343 83.8607 72.6976 84.2831 72.6976 84.8464C72.6976 85.4801 72.2011 86.0434 71.4919 86.0434C71.0663 86.0434 70.7117 85.8322 70.4989 85.5506L69.6478 86.1139C70.0734 86.7476 70.7826 87.0996 71.4919 87.0996C72.6976 87.0996 73.6905 86.1139 73.6905 84.9168C73.6905 84.1423 73.265 83.4382 72.6976 83.0861C73.1231 82.5228 73.4778 81.8187 73.4778 81.0442C73.4778 79.2839 72.0593 77.8756 70.2862 77.8756C68.8677 77.8756 67.8747 78.8614 67.3783 79.988C66.9527 79.7768 66.4562 79.7064 65.9598 79.7064C64.0448 79.7064 62.4135 81.2554 62.4135 83.227C62.4135 85.1281 63.9739 86.7476 65.9598 86.7476C67.2364 86.7476 68.2293 87.8037 68.2293 89.0007V90.1273H59.9312V91.1835H135.182V90.1273L128.302 90.0569ZM86.0314 80.2697H87.4499C87.2371 80.7625 86.9534 81.2554 86.7406 81.6779C86.4569 82.3116 86.1023 82.8749 85.8186 83.4382H84.3292C84.6129 82.9453 84.8257 82.4524 85.1094 81.8891C85.3931 81.3962 85.6768 80.833 86.0314 80.2697ZM86.9534 72.3131H108.16H108.231H109.082V73.7213H85.9605V72.3131H86.8116H86.9534ZM92.9111 62.3146H93.904C93.6912 63.3708 93.4076 64.427 93.1239 65.4127H92.06C92.3437 64.3566 92.6274 63.3708 92.9111 62.3146ZM90.9252 65.4127H89.7195C90.0741 64.427 90.4287 63.3708 90.7833 62.3146H91.7763C91.5635 63.3708 91.2798 64.3566 90.9252 65.4127ZM94.6842 58.6532C94.5423 59.4981 94.3296 60.3431 94.1168 61.188H93.1239C93.3366 60.3431 93.5494 59.4981 93.7622 58.6532H94.6842ZM101.351 58.6532C101.564 59.4981 101.777 60.3431 101.989 61.188H100.996C100.784 60.3431 100.642 59.4981 100.429 58.6532H101.351ZM105.394 65.4127H104.188C103.904 64.427 103.621 63.3708 103.337 62.3146H104.33C104.685 63.3708 105.039 64.427 105.394 65.4127ZM103.124 65.4127H102.06C101.777 64.427 101.564 63.3708 101.28 62.3146H102.273C102.557 63.3708 102.841 64.3566 103.124 65.4127ZM106.245 71.2569C106.174 70.9753 106.032 70.6936 105.961 70.4824H107.451C107.592 70.764 107.663 71.0457 107.805 71.2569H106.245ZM105.11 71.2569H103.904C103.833 70.9753 103.692 70.6936 103.621 70.4824H104.826C104.897 70.764 105.039 70.9753 105.11 71.2569ZM92.4146 71.2569C92.4855 70.9753 92.6274 70.6936 92.6983 70.4824H93.904V71.2569H92.4146ZM94.897 70.4824H97.0247V71.2569H94.897V70.4824ZM98.0886 70.4824H100.216V71.2569H98.0886V70.4824ZM101.28 70.4824H102.486C102.557 70.764 102.699 71.0457 102.77 71.2569H101.28V70.4824ZM103.266 69.4262C102.982 68.4404 102.628 67.4547 102.344 66.4689H103.479C103.763 67.4547 104.117 68.4404 104.472 69.4262H103.266ZM99.4361 58.6532C100.216 62.5258 101.067 66.0464 102.131 69.3558H93.0529C94.1168 66.0464 95.0388 62.5258 95.7481 58.6532H99.4361ZM92.8401 66.4689C92.5564 67.4547 92.2728 68.5109 91.9181 69.4262H90.7124C91.067 68.4404 91.3507 67.4547 91.7054 66.4689H92.8401ZM91.5635 70.4824C91.4926 70.764 91.3507 71.0457 91.2798 71.2569H90.0741C90.145 70.9753 90.2869 70.6936 90.3578 70.4824H91.5635ZM88.9393 71.2569H87.4499C87.5917 70.9753 87.6627 70.6936 87.8045 70.4824H89.2939C89.1521 70.764 89.0102 70.9753 88.9393 71.2569ZM110.004 81.9595C110.288 82.5228 110.571 83.0157 110.784 83.5086H109.295C109.011 82.9453 108.727 82.382 108.373 81.7483C108.16 81.2554 107.876 80.833 107.663 80.3401H109.082C109.436 80.833 109.72 81.3962 110.004 81.9595ZM89.9322 74.7071C89.7904 74.9888 89.7195 75.2704 89.5776 75.5521H88.2301C88.3719 75.2704 88.4428 74.9888 88.5847 74.7071H89.9322ZM91.067 74.7071H104.046C104.968 76.8899 105.819 78.7206 106.6 80.4105C104.401 78.6502 101.493 77.8052 97.5212 77.8052C93.6203 77.8052 90.7124 78.5798 88.4428 80.3401C89.3648 78.791 90.2159 76.8899 91.067 74.7071ZM106.529 74.7071C106.67 74.9888 106.741 75.2704 106.883 75.5521H105.536C105.394 75.2704 105.323 74.9888 105.181 74.7071H106.529ZM107.238 79.2135C106.812 78.3685 106.458 77.5236 106.032 76.6082H107.38C107.805 77.5236 108.231 78.4389 108.656 79.2135H107.238ZM108.514 76.6082H110.146C110.642 77.5236 111.068 78.4389 111.493 79.2135H109.72C109.366 78.4389 108.94 77.5236 108.514 76.6082ZM108.018 75.5521C107.876 75.2704 107.734 74.9888 107.663 74.7071H109.295C109.436 74.9888 109.578 75.2704 109.72 75.5521H108.018ZM85.8895 74.7071H87.5208C87.379 74.9888 87.2371 75.2704 87.1662 75.5521H85.5349C85.6059 75.2704 85.7477 75.0592 85.8895 74.7071ZM86.6697 76.6082C86.2442 77.5236 85.8186 78.4389 85.3931 79.2135H83.62C84.0455 78.3685 84.542 77.5236 84.9675 76.6082H86.6697ZM87.8045 76.6082H89.1521C88.7265 77.5236 88.301 78.4389 87.9464 79.2135H86.5279C86.9534 78.4389 87.379 77.5236 87.8045 76.6082ZM85.3222 84.5648C84.4001 86.5363 83.8327 88.2262 83.62 90.0569H81.9887C82.2015 88.2262 82.8398 86.5363 83.8327 84.5648H85.3222ZM86.386 84.776C88.5847 80.6921 91.9181 78.9318 97.5921 78.9318C103.266 78.9318 106.67 80.6921 108.798 84.776C109.72 86.6771 110.288 88.367 110.5 90.0569H84.6838C84.8257 88.2966 85.464 86.6771 86.386 84.776ZM109.862 84.5648H111.351C112.344 86.5363 112.983 88.2966 113.195 90.0569H111.564C111.351 88.2262 110.784 86.4659 109.862 84.5648ZM112.486 84.5648H114.401C115.394 86.5363 116.032 88.2262 116.174 90.0569H114.188C114.047 88.2262 113.408 86.4659 112.486 84.5648ZM113.905 83.5086H111.99C111.635 82.8749 111.351 82.1708 110.926 81.4667C110.713 81.0442 110.5 80.6921 110.288 80.2697H112.061C112.273 80.6921 112.557 81.1146 112.77 81.5371C113.195 82.2412 113.55 82.8749 113.905 83.5086ZM109.011 70.4824V71.2569H108.869C108.727 70.9753 108.656 70.764 108.514 70.4824H109.011ZM105.536 69.4262C105.181 68.4404 104.826 67.4547 104.543 66.4689H105.748C106.103 67.5251 106.529 68.5109 106.954 69.4262H105.536ZM104.046 61.2584H103.053C102.841 60.4135 102.628 59.5685 102.415 58.7236H103.337C103.55 59.5685 103.763 60.4135 104.046 61.2584ZM92.9111 55.203C92.8402 54.9213 92.7692 54.5693 92.6274 54.2172C92.6274 54.1468 92.5565 54.1468 92.5565 54.0764H102.628C102.628 54.1468 102.557 54.1468 102.557 54.2172C102.415 54.5693 102.273 54.9213 102.273 55.203H92.9111ZM98.0886 12.9558H99.0815C99.0815 13.8712 99.0815 14.7865 99.0815 15.7019H98.0886C98.0886 14.7865 98.0886 13.8712 98.0886 12.9558ZM99.0815 11.8996H98.0886V9.43521H99.0815C99.0815 10.2097 99.0815 11.0547 99.0815 11.8996ZM98.1595 8.37903V6.4779H99.1524C99.1524 7.11161 99.1524 7.74532 99.1524 8.37903H98.1595ZM97.0247 6.4779V8.37903H96.0317C96.0317 7.74532 96.0317 7.11161 96.0317 6.4779H97.0247ZM97.0247 9.36479V11.8292H96.0317C96.0317 10.9843 96.0317 10.2097 96.0317 9.36479H97.0247ZM96.0317 12.9558H97.0247C97.0247 13.8712 97.0247 14.7865 97.0247 15.7019H96.0317C96.0317 14.7865 96.0317 13.8712 96.0317 12.9558ZM98.2304 31.8966H99.578C99.6489 33.5865 99.7908 35.206 99.8617 36.8255H98.3723C98.2304 35.2764 98.2304 33.5865 98.2304 31.8966ZM98.1595 30.8404C98.1595 29.2914 98.1595 27.6719 98.0886 26.0524H99.2234C99.2943 27.6719 99.3652 29.2914 99.3652 30.8404H98.1595ZM98.1595 25.0667C98.1595 23.8697 98.1595 22.6022 98.1595 21.3348H98.3013H99.2234C99.2234 22.6022 99.2943 23.7992 99.2943 25.0667H98.1595ZM98.3013 20.2787H98.1595C98.1595 19.0816 98.1595 17.9551 98.1595 16.6876H99.1524C99.1524 17.8846 99.1524 19.0816 99.2234 20.2787H98.3013ZM98.3013 4.50637H99.578C99.8617 4.50637 100.004 4.7176 100.004 4.92884C100.004 5.21049 99.7907 5.35131 99.578 5.35131H95.4644C95.1807 5.35131 95.0388 5.14007 95.0388 4.92884C95.0388 4.64719 95.2516 4.50637 95.4644 4.50637H96.741H96.8119H98.3013ZM96.0317 16.7581H97.0247C97.0247 17.9551 97.0247 19.1521 97.0247 20.3491H96.8829H95.9608C95.9608 19.1521 96.0317 17.9551 96.0317 16.7581ZM95.9608 21.3348H96.8829H97.0247C97.0247 22.6022 97.0247 23.7992 97.0247 25.0667H95.819C95.8899 23.8697 95.8899 22.6022 95.9608 21.3348ZM95.819 26.1228H97.0247C97.0247 27.7423 97.0247 29.3618 96.9538 30.9109H95.5353C95.6771 29.2914 95.7481 27.7423 95.819 26.1228ZM96.9538 31.8966C96.9538 33.5865 96.8828 35.206 96.8119 36.8255H95.1807C95.3225 35.2764 95.3934 33.5865 95.5353 31.8966H96.9538ZM96.8119 37.8816C96.741 39.7124 96.6701 41.5431 96.5991 43.233H94.6133C94.826 41.5431 94.9679 39.7124 95.1097 37.8816H96.8119ZM97.5921 44.1483C97.8049 47.3873 98.0886 50.3446 98.4432 53.0202H96.741C97.0956 50.2742 97.3793 47.3169 97.5921 44.1483ZM101.777 53.0202H99.5071C99.3652 52.1753 99.2943 51.2599 99.1524 50.415H101.28C101.493 51.2599 101.635 52.1753 101.777 53.0202ZM101.138 49.3588H99.0815C98.9397 47.7393 98.7978 46.0494 98.656 44.2891H100.5C100.642 46.0494 100.926 47.7393 101.138 49.3588ZM98.585 43.233C98.5141 41.5431 98.4432 39.7124 98.3723 37.8816H99.9326C100.074 39.7828 100.216 41.5431 100.429 43.233H98.585ZM98.2304 2.74607C98.4432 2.74607 98.585 2.88689 98.585 3.09813C98.585 3.30936 98.4432 3.45019 98.2304 3.45019H96.8829C96.6701 3.45019 96.5282 3.30936 96.5282 3.09813C96.5282 2.88689 96.6701 2.74607 96.8829 2.74607H98.2304ZM94.4714 44.2891H96.5282C96.3864 46.0494 96.3155 47.7393 96.1027 49.3588H93.7622C94.0459 47.7393 94.2586 46.0494 94.4714 44.2891ZM93.6203 50.415H96.0317C95.9608 51.3303 95.819 52.1753 95.6771 53.0202H93.1239C93.2657 52.1753 93.4075 51.2599 93.6203 50.415ZM103.621 56.2592V57.6674H91.5635V56.2592H103.621ZM92.6983 58.6532C92.4855 59.4981 92.2728 60.3431 92.06 61.188H91.067C91.2798 60.3431 91.5635 59.4981 91.7763 58.6532H92.6983ZM89.3649 66.4689H90.5706C90.2159 67.4547 89.9322 68.4404 89.5776 69.4262H88.1591C88.5847 68.5109 89.0102 67.4547 89.3649 66.4689ZM86.5988 70.4824C86.4569 70.764 86.386 71.0457 86.2442 71.2569H86.1023V70.4824H86.5988ZM82.3433 81.5371C82.5561 81.1146 82.8398 80.6921 83.0526 80.2697H84.8257C84.6129 80.6921 84.4001 81.1146 84.1874 81.4667C83.8327 82.1708 83.4781 82.8045 83.1235 83.5086H81.2085C81.5632 82.8749 81.9178 82.2412 82.3433 81.5371ZM80.7121 84.5648H82.627C81.705 86.4659 81.0667 88.2262 80.9248 90.0569H78.939C79.0808 88.2262 79.7191 86.4659 80.7121 84.5648Z" fill="#003E7E"/>
<path d="M123.763 84.1424H124.827C124.827 83.5791 125.253 83.1566 125.82 83.1566V82.1004C124.685 82.1004 123.763 83.0158 123.763 84.1424Z" fill="#003E7E"/>
<path d="M64.825 84.1424H65.8888C65.8888 83.5791 66.3144 83.1566 66.8818 83.1566V82.1004C65.747 82.1004 64.825 83.0158 64.825 84.1424Z" fill="#003E7E"/>
<path d="M123.196 11.8996H118.018V12.9558H123.196V11.8996Z" fill="#003E7E"/>
<path d="M75.2509 45.6974H72.9813V46.7536H75.2509V45.6974Z" fill="#003E7E"/>
<path d="M70.0734 45.6974H63.2646V46.7536H70.0734V45.6974Z" fill="#003E7E"/>
<path d="M195.61 43.585H193.34V44.6412H195.61V43.585Z" fill="#003E7E"/>
<path d="M190.432 43.585H183.624V44.6412H190.432V43.585Z" fill="#003E7E"/>
<path d="M154.119 37.6704H151.849V38.7266H154.119V37.6704Z" fill="#003E7E"/>
<path d="M148.941 37.6704H142.133V38.7266H148.941V37.6704Z" fill="#003E7E"/>
<path d="M46.1009 90.1273H49.0088V85.3393C49.0088 84.9168 48.867 84.5648 48.5833 84.3535C48.2996 84.0719 47.945 83.9311 47.5903 83.9311C47.1648 83.9311 46.8102 84.0719 46.5974 84.3535C46.3137 84.6352 46.1718 84.9873 46.1718 85.3393V90.1273H46.1009ZM49.5053 91.2539H44.9661V85.3393C44.9661 84.6352 45.2498 84.0015 45.7463 83.5086C46.2428 83.0157 46.8811 82.7341 47.5903 82.7341C48.2996 82.7341 48.9379 83.0157 49.3634 83.5086C49.8599 83.9311 50.1436 84.5648 50.1436 85.2689V91.1835L49.5053 91.2539Z" fill="#003E7E"/>
<path fill-rule="evenodd" clip-rule="evenodd" d="M48.0159 85.1985L47.3776 82.2412L44.4697 82.8045C44.4697 82.8045 42.6965 85.2689 42.7675 85.4802C42.8384 85.6914 43.5476 91.3948 43.5476 91.3948L45.4626 94.0704C45.4626 94.0704 46.7392 93.7184 46.8102 93.5775C46.8102 93.4367 48.1577 87.0996 48.1577 87.0996L48.0159 85.1985Z" fill="#FEFEFE"/>
<path d="M27.5896 71.7498L30.9231 71.6794V67.2434C30.9231 66.8209 30.7103 66.3985 30.4266 66.1168C30.1429 65.8352 29.7174 65.6239 29.2918 65.6239C28.7953 65.6239 28.4407 65.8352 28.0861 66.1168C27.8024 66.3985 27.5896 66.8209 27.5896 67.2434V71.7498ZM31.4905 72.7356L26.4548 72.8764V67.2434C26.4548 66.4689 26.7385 65.8352 27.3059 65.2719C27.8024 64.779 28.5116 64.4269 29.2918 64.4269C30.072 64.4269 30.7103 64.7086 31.2777 65.2719C31.7742 65.7648 32.1288 66.4689 32.1288 67.2434V72.7356H31.4905Z" fill="#003E7E"/>
<path fill-rule="evenodd" clip-rule="evenodd" d="M28.4407 64.0045L30.4266 61.3992L32.5543 62.9483L33.1217 68.5813L33.0508 71.3977C33.0508 71.3977 31.9869 72.3835 31.5614 72.2427C31.1358 72.1018 28.9372 71.1161 28.9372 71.1161L28.4407 64.0045Z" fill="#FEFEFE"/>
<path d="M27.5896 80.9034L30.9231 80.833V76.4675C30.9231 75.9746 30.7103 75.6225 30.4266 75.2705C30.1429 74.9888 29.7174 74.7776 29.2918 74.7776C28.7953 74.7776 28.4407 74.9888 28.0861 75.2705C27.8024 75.5521 27.5896 75.9746 27.5896 76.4675V80.9034ZM31.4905 81.8892L26.4548 82.03V76.397C26.4548 75.6225 26.7385 74.9184 27.3059 74.4255C27.8024 73.9326 28.5116 73.5806 29.2918 73.5806C30.072 73.5806 30.7103 73.8622 31.2777 74.4255C31.7742 74.9184 32.1288 75.6225 32.1288 76.397V81.8892H31.4905Z" fill="#003E7E"/>
<path fill-rule="evenodd" clip-rule="evenodd" d="M29.7883 75.6225L29.4337 71.1865L31.1359 73.2989L32.6962 74.6367L33.0508 79.636L32.9799 82.1004C32.9799 82.1004 32.2706 82.9453 31.916 82.8749C31.5614 82.7341 30.072 81.8892 30.072 81.8892L29.7883 75.6225Z" fill="#FEFEFE"/>
<path d="M12.0572 90.2682H33.9728L28.0152 57.597C24.4689 57.6674 21.2064 57.9491 18.4404 58.442C15.7452 58.9348 13.6175 59.5685 12.0572 60.4839V90.2682ZM34.6112 91.3948H10.9224V59.8502L11.2061 59.7094C12.9083 58.6532 15.3197 57.8787 18.2276 57.3858C21.1355 56.8929 24.5399 56.6112 28.4407 56.5408H28.9372L35.3204 91.4652H34.6112V91.3948Z" fill="#003E7E"/>
<path d="M11.5607 74.3551C11.277 74.4255 10.9933 74.1438 10.9224 73.8622C10.9224 73.5805 11.1351 73.2989 11.4188 73.2285C19.4333 72.2427 31.1359 71.2569 41.7745 71.5386C49.2925 71.7498 56.385 72.7356 61.3497 74.848L61.7043 74.9888V91.1835L30.7103 91.3244C30.4266 91.3244 30.1429 91.1131 30.1429 90.7611C30.1429 90.4794 30.3557 90.1978 30.7103 90.1978L60.5695 90.0569V75.6929C55.7467 73.7214 49.0088 72.8764 41.7745 72.5948C31.1359 72.3131 19.5752 73.3693 11.5607 74.3551Z" fill="#003E7E"/>
<path d="M41.7036 62.033C41.7036 62.3146 41.4199 62.5963 41.0653 62.5258C40.7816 62.5258 40.5688 62.2442 40.5688 61.8921C40.8525 58.794 42.4838 57.1041 44.3278 56.4704C45.0371 56.1888 45.7463 56.1183 46.4555 56.1183C47.1648 56.1183 47.874 56.3296 48.4414 56.5408C49.5762 57.0337 50.3564 57.8786 50.6401 58.9348C51.2784 58.794 51.9876 58.8644 52.555 59.0757C52.9097 59.2165 53.2643 59.4277 53.548 59.6389C53.8317 59.9206 54.1154 60.2022 54.2572 60.6247C54.47 61.1176 54.5409 61.6809 54.47 62.3146H60.9241C61.2078 62.3146 61.4915 62.5963 61.4915 62.8779C61.4915 63.1596 61.2078 63.4412 60.9241 63.4412H53.7608C53.6898 63.4412 53.6189 63.4412 53.548 63.4412C53.2643 63.3708 53.1224 63.0187 53.1934 62.7371C53.4061 62.1034 53.4061 61.5401 53.1934 61.1176C53.1224 60.9064 52.9806 60.6951 52.7678 60.5543C52.555 60.4135 52.3423 60.2727 52.1295 60.2022C51.5621 59.991 50.9238 59.991 50.2855 60.2727C50.2145 60.3431 50.1436 60.3431 50.0727 60.3431C49.789 60.3431 49.5053 60.0614 49.5053 59.7798C49.5762 58.8644 48.867 58.0899 47.945 57.6674C47.4485 57.4562 46.952 57.3154 46.3846 57.3154C45.8172 57.3154 45.2498 57.3858 44.6824 57.597C43.2639 58.0899 41.9873 59.4981 41.7036 62.033Z" fill="#003E7E"/>
<path d="M9.78758 52.6682C10.284 52.6682 10.7096 52.8794 11.0642 53.161C11.3479 53.5131 11.5607 53.9356 11.5607 54.4285C11.5607 54.9213 11.3479 55.3438 11.0642 55.6959C10.7096 56.0479 10.284 56.1888 9.78758 56.1888C9.29111 56.1888 8.86556 55.9775 8.51094 55.6959C8.22724 55.3438 8.01447 54.9213 8.01447 54.4285C8.01447 53.9356 8.22724 53.5131 8.58186 53.161C8.79463 52.8794 9.29111 52.6682 9.78758 52.6682ZM10.2131 54.006C10.0713 53.8652 9.92943 53.7947 9.71665 53.7947C9.50388 53.7947 9.36203 53.8652 9.22018 54.006C9.07833 54.1468 9.00741 54.2876 9.00741 54.4989C9.00741 54.7101 9.07833 54.8509 9.22018 54.9917C9.36203 55.1326 9.50388 55.203 9.71665 55.203C9.92943 55.203 10.0713 55.1326 10.2131 54.9917C10.355 54.8509 10.4259 54.7101 10.4259 54.4989C10.4259 54.2876 10.355 54.1468 10.2131 54.006Z" fill="#003E7E"/>
<path d="M48.0159 63.582C48.5123 63.582 48.9379 63.7933 49.2925 64.0749C49.6471 64.427 49.789 64.8494 49.789 65.3423C49.789 65.8352 49.5762 66.2577 49.2925 66.6097C48.9379 66.9618 48.5123 67.1026 48.0159 67.1026C47.5194 67.1026 47.0939 66.8914 46.7392 66.6097C46.3846 66.2577 46.2428 65.8352 46.2428 65.3423C46.2428 64.8494 46.4555 64.427 46.7392 64.0749C47.0939 63.7933 47.5194 63.582 48.0159 63.582ZM48.5124 64.9199C48.3705 64.779 48.2287 64.7086 48.0159 64.7086C47.8031 64.7086 47.6613 64.779 47.5194 64.9199C47.3776 65.0607 47.3066 65.2015 47.3066 65.4127C47.3066 65.624 47.3776 65.7648 47.5194 65.9056C47.6613 66.0464 47.8031 66.1169 48.0159 66.1169C48.2287 66.1169 48.3705 66.0464 48.5124 65.9056C48.6542 65.7648 48.7251 65.624 48.7251 65.4127C48.7251 65.2015 48.5833 64.9903 48.5124 64.9199Z" fill="#003E7E"/>
<path d="M178.375 52.5273C178.375 52.809 178.659 53.0906 179.013 53.0202C179.297 53.0202 179.51 52.7386 179.51 52.3865C179.226 49.2884 177.595 47.5985 175.751 46.9648C175.042 46.6831 174.332 46.6127 173.623 46.6127C172.914 46.6127 172.205 46.824 171.637 47.0352C170.502 47.5281 169.722 48.373 169.439 49.4292C168.8 49.2884 168.091 49.3588 167.524 49.57C167.169 49.7109 166.814 49.9221 166.531 50.1333C166.247 50.415 165.963 50.6966 165.821 51.1191C165.609 51.612 165.538 52.1753 165.609 52.809H159.155C158.871 52.809 158.587 53.0906 158.587 53.3723C158.587 53.6539 158.871 53.9356 159.155 53.9356H166.389C166.46 53.9356 166.531 53.9356 166.602 53.9356C166.885 53.8652 167.027 53.5131 166.956 53.2315C166.743 52.5977 166.743 52.0345 166.956 51.612C167.027 51.4007 167.169 51.1895 167.382 51.0487C167.595 50.9079 167.807 50.767 168.02 50.6966C168.587 50.4854 169.226 50.4854 169.864 50.767C169.935 50.8375 170.006 50.8374 170.077 50.8374C170.361 50.8374 170.644 50.5558 170.644 50.2742C170.573 49.3588 171.283 48.5843 172.205 48.1618C172.701 47.9506 173.198 47.8097 173.765 47.8097C174.332 47.8097 174.9 47.8802 175.467 48.0914C176.815 48.5139 178.091 49.9221 178.375 52.5273Z" fill="#003E7E"/>
<path d="M171.992 54.006C172.488 54.006 172.914 54.2172 173.269 54.4989C173.623 54.8509 173.765 55.2734 173.765 55.7663C173.765 56.2592 173.552 56.6816 173.269 57.0337C172.914 57.3858 172.488 57.5266 171.992 57.5266C171.495 57.5266 171.07 57.3153 170.715 57.0337C170.361 56.6816 170.219 56.2592 170.219 55.7663C170.219 55.2734 170.432 54.8509 170.715 54.4989C171.07 54.2172 171.495 54.006 171.992 54.006ZM171.566 55.3438C171.424 55.4846 171.354 55.6255 171.354 55.8367C171.354 56.0479 171.424 56.1888 171.566 56.3296C171.708 56.4704 171.85 56.5408 172.063 56.5408C172.276 56.5408 172.417 56.4704 172.559 56.3296C172.701 56.1888 172.772 56.0479 172.772 55.8367C172.772 55.6255 172.701 55.4846 172.559 55.3438C172.417 55.203 172.276 55.1326 172.063 55.1326C171.85 55.1326 171.637 55.203 171.566 55.3438Z" fill="#003E7E"/>
<path d="M11.5607 82.8749C11.277 82.8749 10.9933 82.6637 10.9933 82.382C10.9933 82.1004 11.2061 81.8187 11.4898 81.8187C19.3624 81.185 27.4478 80.8329 35.7459 80.8329C44.0441 80.8329 52.555 81.1146 61.2078 81.8187C61.4915 81.8187 61.7752 82.1004 61.7043 82.382C61.7043 82.6637 61.4206 82.9453 61.1369 82.8749C52.4132 82.2412 43.9732 81.8891 35.7459 81.8891C27.4478 81.8891 19.4333 82.2412 11.5607 82.8749Z" fill="#003E7E"/>
<path d="M30.3557 57.0337C30.2848 56.7521 30.4975 56.4704 30.7812 56.4C31.0649 56.3296 31.3486 56.5408 31.4195 56.8225L35.8169 80.6217C35.8878 80.9034 35.675 81.185 35.3913 81.2554C35.1076 81.3259 34.8239 81.1146 34.753 80.833L30.3557 57.0337Z" fill="#003E7E"/>
<path d="M42.4838 81.4667C42.4128 81.185 42.6256 80.9034 42.9093 80.833C43.193 80.7626 43.4767 80.9738 43.5476 81.2555L45.2498 90.5498C45.3207 90.8315 45.108 91.1131 44.8243 91.1835C44.5406 91.254 44.2569 91.0427 44.186 90.7611L42.4838 81.4667Z" fill="#003E7E"/>
<path d="M27.5896 90.2682H30.9231V85.6914C30.9231 85.2689 30.7103 84.8464 30.4266 84.5648C30.1429 84.2831 29.7174 84.0719 29.2209 84.0719C28.7953 84.0719 28.3698 84.2831 28.0861 84.5648C27.8024 84.8464 27.5896 85.2689 27.5896 85.6914V90.2682ZM31.4195 91.3948H26.4548V85.6914C26.4548 84.9168 26.7385 84.2127 27.235 83.7198C27.7315 83.227 28.4407 82.9453 29.2209 82.9453C30.0011 82.9453 30.7103 83.227 31.2068 83.7198C31.7032 84.2127 32.0579 84.9168 32.0579 85.6914V91.3948H31.4195Z" fill="#003E7E"/>
<path d="M20.8518 90.2682H23.6179V85.4097C23.6179 85.0577 23.476 84.7056 23.1923 84.424C22.9086 84.1423 22.6249 84.0015 22.1994 84.0015C21.8447 84.0015 21.4901 84.1423 21.2064 84.424C20.9937 84.6352 20.7809 84.9873 20.7809 85.4097V90.2682H20.8518ZM24.1143 91.3948H19.717V85.4097C19.717 84.7056 20.0007 84.0719 20.4263 83.6494C20.8518 83.227 21.4901 82.9453 22.1994 82.9453C22.9086 82.9453 23.5469 83.227 23.9725 83.6494C24.398 84.0719 24.6817 84.7056 24.6817 85.4097V91.3948H24.1143Z" fill="#003E7E"/>
<path d="M15.1778 90.2681H16.7382V85.1281C16.7382 84.9168 16.6673 84.7056 16.5254 84.5648C16.3836 84.424 16.1708 84.3535 15.958 84.3535C15.7452 84.3535 15.5325 84.424 15.3906 84.5648C15.2488 84.7056 15.1778 84.9168 15.1778 85.1281V90.2681ZM17.3056 91.3947H14.043V85.1985C14.043 84.7056 14.2558 84.2127 14.6104 83.8607C14.9651 83.5086 15.4615 83.2974 15.958 83.2974C16.4545 83.2974 16.951 83.5086 17.3056 83.8607C17.6602 84.2127 17.873 84.6352 17.873 85.1985V91.3947H17.3056Z" fill="#003E7E"/>
<path d="M20.8518 81.185L23.6179 81.0442V76.6082C23.6179 76.2562 23.476 75.9041 23.1923 75.6225C22.9086 75.4112 22.6249 75.2 22.1994 75.2C21.8447 75.2 21.4901 75.3408 21.2064 75.6225C20.9937 75.9041 20.7809 76.1857 20.7809 76.6082V81.185H20.8518ZM24.1853 82.1004L19.717 82.3116V76.6082C19.717 75.9041 20.0007 75.3408 20.4263 74.8479C20.8518 74.4254 21.4901 74.1438 22.1994 74.1438C22.9086 74.1438 23.5469 74.4254 23.9725 74.8479C24.398 75.2704 24.6817 75.9041 24.6817 76.6082V82.1004H24.1853Z" fill="#003E7E"/>
<path d="M15.1778 81.4667L16.7382 81.3258V76.6787C16.7382 76.4674 16.6673 76.2562 16.5254 76.1154C16.3836 75.9745 16.1708 75.9041 15.958 75.9041C15.7452 75.9041 15.5325 75.9745 15.3906 76.1154C15.2488 76.2562 15.1778 76.4674 15.1778 76.6787V81.4667ZM17.3765 82.382L14.114 82.6637V76.6787C14.114 76.1858 14.3267 75.6929 14.6814 75.3408C15.036 74.9888 15.5325 74.7775 16.0289 74.7775C16.5254 74.7775 17.0219 74.9888 17.3765 75.3408C17.7311 75.6929 17.9439 76.1858 17.9439 76.6787V82.382H17.3765Z" fill="#003E7E"/>
<path d="M20.8518 72.2427L23.6179 72.0314V67.5955C23.6179 67.5251 23.6179 67.5955 23.6179 67.5251C23.6179 67.173 23.476 66.821 23.1923 66.6097C22.9795 66.3985 22.6249 66.2577 22.2703 66.2577C22.1994 66.2577 22.2703 66.2577 22.2703 66.2577C21.9157 66.2577 21.561 66.3985 21.2773 66.6801C20.9937 66.9618 20.8518 67.3138 20.8518 67.6659V72.2427ZM24.1853 73.158L19.717 73.4397V67.7363C19.717 67.0322 20.0007 66.3985 20.4263 65.976C20.8518 65.4831 21.4901 65.2015 22.1994 65.2015C22.2703 65.2015 22.1994 65.2015 22.2703 65.2015C22.9086 65.2015 23.5469 65.4831 23.9725 65.9056C24.398 66.3281 24.6817 66.9618 24.6817 67.5955C24.6817 67.6659 24.6817 67.5955 24.6817 67.6659V73.0876L24.1853 73.158Z" fill="#003E7E"/>
<path d="M15.1778 72.806L16.7382 72.6651V68.0179C16.7382 67.8067 16.6673 67.5955 16.5254 67.4546C16.3836 67.3138 16.1708 67.2434 15.958 67.2434C15.7452 67.2434 15.5325 67.3138 15.3906 67.4546C15.2488 67.5955 15.1778 67.8067 15.1778 68.0179V72.806ZM17.3765 73.7213L14.114 74.003V68.0179C14.114 67.5251 14.3267 67.0322 14.6814 66.6801C15.036 66.3281 15.5325 66.1168 16.0289 66.1168C16.5254 66.1168 17.0219 66.3281 17.3765 66.6801C17.7311 67.0322 17.9439 67.5251 17.9439 68.0179V73.7213H17.3765Z" fill="#003E7E"/>
<path d="M44.7534 81.4667C44.6824 81.185 44.8952 80.9034 45.1789 80.833C45.4626 80.7626 45.7463 80.9738 45.8172 81.2555L47.5194 90.5498C47.5903 90.8315 47.3776 91.1131 47.0939 91.1835C46.8102 91.254 46.5265 91.0427 46.4555 90.7611L44.7534 81.4667Z" fill="#003E7E"/>
<path d="M37.8737 90.1978H40.7816V85.4097C40.7816 84.9873 40.6397 84.6352 40.356 84.424C40.0723 84.1423 39.7177 84.0015 39.3631 84.0015C39.0085 84.0015 38.5829 84.1423 38.3701 84.424C38.0864 84.7056 37.9446 85.0577 37.9446 85.4097V90.1978H37.8737ZM41.2781 91.3243H36.7389V85.4097C36.7389 84.7056 37.0226 84.0719 37.5191 83.579C38.0155 83.0862 38.5829 82.8045 39.2922 82.8045C40.0014 82.8045 40.6397 83.0862 41.1362 83.579C41.6327 84.0719 41.9164 84.7056 41.9164 85.4097V91.3243H41.2781Z" fill="#003E7E"/>
<path d="M38.1574 80.7625H41.0653V75.9745C41.0653 75.552 40.9234 75.2 40.6397 74.9887C40.356 74.7071 40.0014 74.5663 39.6468 74.5663C39.2922 74.5663 38.8666 74.7071 38.6538 74.9887C38.3701 75.2704 38.2283 75.6225 38.2283 75.9745V80.7625H38.1574ZM41.6327 81.8891H37.0935V75.9745C37.0935 75.2704 37.3772 74.6367 37.8737 74.1438C38.3701 73.6509 39.0085 73.3693 39.7177 73.3693C40.427 73.3693 41.0653 73.6509 41.5617 74.1438C42.0582 74.6367 42.3419 75.2704 42.3419 75.9745V81.8891H41.6327Z" fill="#003E7E"/>
<path d="M46.1009 80.9034L48.9379 80.9738V76.1858C48.9379 75.7633 48.796 75.4113 48.5124 75.1296C48.2287 74.848 47.874 74.7072 47.5194 74.6367C47.5194 74.6367 47.5194 74.6367 47.4485 74.6367C47.0939 74.6367 46.7392 74.7776 46.4555 74.9888C46.2428 75.2 46.03 75.5521 46.03 75.9042C46.03 75.9042 46.03 75.9042 46.03 75.9746V80.9034H46.1009ZM49.5053 82.1004L44.9661 81.9596V76.045V75.9746C44.9661 75.3409 45.2498 74.7072 45.7463 74.2847C46.1718 73.8622 46.8102 73.5806 47.4485 73.5806H47.5194C48.2287 73.5806 48.867 73.9326 49.2925 74.3551C49.789 74.848 50.0727 75.4817 50.0727 76.1858V82.1004H49.5053Z" fill="#003E7E"/>
<path d="M53.6189 81.185L55.8176 81.3258V76.749C55.8176 76.4674 55.6757 76.1153 55.4629 75.9041C55.2502 75.6929 54.9665 75.552 54.6828 75.552H54.6118C54.3281 75.552 54.1154 75.6224 53.9026 75.8337C53.6898 75.9745 53.6189 76.2561 53.6189 76.5378V76.6082V81.185ZM56.385 82.4524L52.555 82.2412V76.6082C52.555 76.6082 52.555 76.5378 52.555 76.4674C52.555 75.9041 52.8387 75.4112 53.1934 75.0591C53.548 74.7071 54.1154 74.4958 54.6828 74.4958H54.7537C55.392 74.5663 55.8885 74.7775 56.314 75.2C56.6687 75.6224 56.9524 76.1857 56.9524 76.8194V82.5228L56.385 82.4524Z" fill="#003E7E"/>
<path d="M53.6189 90.1273H55.8176V85.5505C55.8176 85.2689 55.6757 84.9872 55.463 84.776C55.2502 84.5648 54.9665 84.4239 54.6828 84.4239C54.3991 84.4239 54.1154 84.5648 53.9026 84.776C53.6898 84.9872 53.548 85.2689 53.548 85.5505V90.1273H53.6189ZM56.385 91.2539H52.4841V85.6209C52.4841 84.9872 52.7678 84.4944 53.1225 84.0719C53.548 83.6494 54.1154 83.4382 54.6828 83.4382C55.3211 83.4382 55.8176 83.7198 56.2431 84.0719C56.6687 84.4944 56.8814 84.9872 56.8814 85.6209V91.2539H56.385Z" fill="#003E7E"/>
<path d="M23.6888 52.1049C23.4051 52.1049 23.1214 51.8232 23.1214 51.5416C23.1214 51.2599 23.4051 50.9783 23.6888 50.9783H38.2992C38.5829 50.9783 38.8666 51.2599 38.8666 51.5416C38.8666 51.8232 38.5829 52.1049 38.2992 52.1049H23.6888Z" fill="#003E7E"/>
<path d="M6.24135 67.4547C5.95766 67.4547 5.67396 67.173 5.67396 66.8914C5.67396 66.6097 5.95766 66.3281 6.24135 66.3281H8.44001C8.72371 66.3281 9.00741 66.6097 9.00741 66.8914C9.00741 67.173 8.79464 67.4547 8.44001 67.4547H6.24135Z" fill="#003E7E"/>
<path d="M0.567396 64.9902C0.283698 64.9902 0 64.7086 0 64.4269C0 64.1453 0.283698 63.8636 0.567396 63.8636H6.87967C7.16337 63.8636 7.44707 64.1453 7.44707 64.4269C7.44707 64.7086 7.16337 64.9902 6.87967 64.9902H0.567396Z" fill="#003E7E"/>
<path d="M58.4418 69.7783C58.1581 69.7783 57.8744 69.4966 57.8744 69.215C57.8744 68.9333 58.1581 68.6517 58.4418 68.6517H63.7611C64.0448 68.6517 64.3285 68.9333 64.3285 69.215C64.3285 69.4966 64.1157 69.7783 63.7611 69.7783H58.4418Z" fill="#003E7E"/>
<path d="M4.53917 91.3948C4.25547 91.3948 3.97177 91.1131 3.97177 90.8315C3.97177 90.5498 4.25547 90.2682 4.53917 90.2682H13.2629C13.5466 90.2682 13.8303 90.5498 13.8303 90.8315C13.8303 91.1131 13.5466 91.3948 13.2629 91.3948H4.53917Z" fill="#003E7E"/>
<path d="M57.5197 91.2539C57.236 91.2539 56.9524 90.9723 56.9524 90.6906C56.9524 90.409 57.236 90.1273 57.5197 90.1273H66.2435C66.5272 90.1273 66.8109 90.3386 66.8109 90.6906C66.8109 90.9723 66.5981 91.2539 66.2435 91.2539H57.5197Z" fill="#003E7E"/>
<path d="M6.9506 86.818C7.44707 86.818 7.87262 86.6772 8.22724 86.5364C8.44001 86.3955 8.58186 86.2547 8.58186 86.1139C8.58186 79.2839 8.01447 74.848 7.30522 73.0172C7.09245 72.5244 6.9506 72.2427 6.9506 72.2427C6.87967 72.2427 6.73783 72.5244 6.59598 73.0172C5.88673 74.9184 5.31934 79.2839 5.31934 86.1139C5.31934 86.2547 5.46118 86.3955 5.67396 86.5364C5.95766 86.6772 6.45413 86.818 6.9506 86.818ZM6.9506 87.9446C6.24135 87.9446 5.60303 87.7334 5.10656 87.4517C4.53917 87.0996 4.18454 86.6068 4.18454 86.0435C4.18454 79.0727 4.75194 74.5663 5.53211 72.5244C5.88673 71.5386 6.3832 71.0457 6.9506 71.0457C7.51799 71.0457 8.01447 71.5386 8.36909 72.5244C9.14926 74.4959 9.71665 79.0023 9.71665 86.0435C9.71665 86.6068 9.36203 87.0996 8.79463 87.4517C8.29816 87.7334 7.65984 87.9446 6.9506 87.9446Z" fill="#003E7E"/>
<path d="M6.38321 85.7618C6.38321 85.4801 6.6669 85.1985 6.9506 85.1985C7.2343 85.1985 7.518 85.4801 7.518 85.7618V90.8314C7.518 91.1131 7.2343 91.3947 6.9506 91.3947C6.6669 91.3947 6.38321 91.1131 6.38321 90.8314V85.7618Z" fill="#003E7E"/>
<path d="M149.793 90.0569H135.182V91.1131H149.793V90.0569Z" fill="#003E7E"/>
<path d="M137.664 72.8764H139.296V70.1303C139.296 69.9191 139.225 69.7079 139.083 69.5671C138.941 69.4262 138.728 69.3558 138.516 69.3558C138.303 69.3558 138.09 69.4262 137.948 69.5671C137.806 69.7079 137.735 69.9191 137.735 70.1303V72.8764H137.664ZM139.579 73.5101H137.026V70.1303C137.026 69.7079 137.168 69.3558 137.452 69.1446C137.735 68.8629 138.09 68.7221 138.445 68.7221C138.87 68.7221 139.225 68.8629 139.438 69.1446C139.721 69.4262 139.863 69.7783 139.863 70.1303V73.5101H139.579Z" fill="#003E7E"/>
<path d="M141.423 72.8764H143.055V69.1446C143.055 68.9333 142.984 68.7221 142.842 68.5813C142.7 68.4405 142.487 68.37 142.275 68.37C142.062 68.37 141.849 68.4405 141.707 68.5813C141.565 68.7221 141.494 68.9333 141.494 69.1446V72.8764H141.423ZM143.409 73.5101H140.856V69.1446C140.856 68.7221 140.998 68.37 141.282 68.1588C141.565 67.8772 141.92 67.7363 142.275 67.7363C142.7 67.7363 143.055 67.8772 143.267 68.1588C143.551 68.4405 143.693 68.7925 143.693 69.1446V73.5101H143.409Z" fill="#003E7E"/>
<path d="M145.253 72.8764H146.885V70.1303C146.885 69.9191 146.814 69.7079 146.672 69.5671C146.53 69.4262 146.317 69.3558 146.104 69.3558C145.892 69.3558 145.679 69.4262 145.537 69.5671C145.395 69.7079 145.324 69.9191 145.324 70.1303V72.8764H145.253ZM147.239 73.5101H144.686V70.1303C144.686 69.7079 144.828 69.3558 145.112 69.1446C145.395 68.8629 145.75 68.7221 146.104 68.7221C146.53 68.7221 146.885 68.8629 147.097 69.1446C147.381 69.4262 147.523 69.7783 147.523 70.1303V73.5101H147.239Z" fill="#003E7E"/>
<path d="M137.664 80.9738H139.296V78.2277C139.296 78.0165 139.225 77.8052 139.083 77.6644C138.941 77.5236 138.728 77.4532 138.516 77.4532C138.303 77.4532 138.09 77.5236 137.948 77.6644C137.806 77.8052 137.735 78.0165 137.735 78.2277V80.9738H137.664ZM139.579 81.6075H137.026V78.2277C137.026 77.8052 137.168 77.4532 137.452 77.2419C137.735 76.9603 138.09 76.8195 138.445 76.8195C138.87 76.8195 139.225 76.9603 139.438 77.2419C139.721 77.5236 139.863 77.8756 139.863 78.2277V81.6075H139.579Z" fill="#003E7E"/>
<path d="M141.423 80.9738H143.055V77.2419C143.055 77.0307 142.984 76.8194 142.842 76.6786C142.7 76.5378 142.487 76.4674 142.275 76.4674C142.062 76.4674 141.849 76.5378 141.707 76.6786C141.565 76.8194 141.494 77.0307 141.494 77.2419V80.9738H141.423ZM143.409 81.6075H140.856V77.2419C140.856 76.8194 140.998 76.4674 141.282 76.2562C141.565 75.9745 141.92 75.8337 142.275 75.8337C142.7 75.8337 143.055 75.9745 143.267 76.2562C143.551 76.5378 143.693 76.8899 143.693 77.2419V81.6075H143.409Z" fill="#003E7E"/>
<path d="M145.253 80.9738H146.885V78.2277C146.885 78.0165 146.814 77.8052 146.672 77.6644C146.53 77.5236 146.317 77.4532 146.104 77.4532C145.892 77.4532 145.679 77.5236 145.537 77.6644C145.395 77.8052 145.324 78.0165 145.324 78.2277V80.9738H145.253ZM147.239 81.6075H144.686V78.2277C144.686 77.8052 144.828 77.4532 145.112 77.2419C145.395 76.9603 145.75 76.8195 146.104 76.8195C146.53 76.8195 146.885 76.9603 147.097 77.2419C147.381 77.5236 147.523 77.8756 147.523 78.2277V81.6075H147.239Z" fill="#003E7E"/>
<path d="M144.189 64.4974H139.792C139.579 64.4974 139.296 64.3565 139.154 64.2157C139.012 64.0045 138.941 63.7932 138.941 63.5116L141.14 50.6966C141.211 50.2741 141.565 49.9925 141.991 49.9925C142.416 49.9925 142.771 50.2741 142.842 50.6966L145.041 63.5116C145.112 63.7228 145.041 64.0045 144.828 64.2157C144.686 64.3565 144.473 64.4974 144.189 64.4974ZM140.005 63.5116H144.048L142.062 51.7528L140.005 63.5116Z" fill="#003E7E"/>
<path d="M149.154 91.1131H134.969C134.615 91.1131 134.26 90.761 134.26 90.409V63.6524C134.26 63.582 134.26 63.5116 134.331 63.4412L135.608 59.5685C135.679 59.2869 135.962 59.0756 136.246 59.0756C136.53 59.0756 136.813 59.2869 136.884 59.5685L138.161 63.582L138.232 65.1311H145.537V63.582C145.537 63.5116 145.537 63.4412 145.608 63.3708L147.097 59.3573C147.168 59.0756 147.452 58.9348 147.736 58.9348C148.019 58.9348 148.303 59.1461 148.374 59.3573L149.793 63.3708C149.793 63.4412 149.863 63.5116 149.863 63.582V83.5086H150.076C150.785 83.5086 151.424 84.1423 151.424 84.8464V87.6629C151.424 88.5078 150.785 89.1415 149.934 89.1415H149.863V90.3386C149.863 90.761 149.509 91.1131 149.154 91.1131ZM135.324 90.1273H148.871V88.2262H149.934C150.218 88.2262 150.431 88.015 150.431 87.7333V84.9168C150.431 84.7056 150.289 84.5648 150.076 84.5648H148.871V63.6524L147.736 60.4839L146.601 63.6524V65.4127C146.601 65.624 146.53 65.7648 146.388 65.9056C146.246 66.0464 146.104 66.1168 145.892 66.1168H138.019C137.664 66.1168 137.31 65.8352 137.31 65.4127L137.239 63.6524L136.246 60.6951L135.253 63.582V90.1273H135.324Z" fill="#003E7E"/>
<path d="M197.667 70.1303C197.667 69.9191 197.596 69.7079 197.454 69.5671C197.312 69.4262 197.099 69.3558 196.886 69.3558C196.674 69.3558 196.461 69.4262 196.319 69.5671C196.177 69.7079 196.106 69.9191 196.106 70.1303V72.8764H197.737V70.1303H197.667ZM195.397 73.5101V70.1303C195.397 69.7079 195.539 69.3558 195.823 69.1446C196.106 68.8629 196.461 68.7221 196.815 68.7221C197.17 68.7221 197.596 68.8629 197.808 69.1446C198.092 69.4262 198.234 69.7783 198.234 70.1303V73.5101H195.681H195.397Z" fill="#003E7E"/>
<path d="M193.837 69.0742C193.837 68.8629 193.766 68.6517 193.624 68.5109C193.482 68.37 193.269 68.2996 193.056 68.2996C192.844 68.2996 192.631 68.37 192.489 68.5109C192.347 68.6517 192.276 68.8629 192.276 69.0742V72.806H193.908V69.0742H193.837ZM191.567 73.5101V69.1446C191.567 68.7221 191.709 68.37 191.993 68.1588C192.276 67.8772 192.631 67.7363 192.986 67.7363C193.34 67.7363 193.766 67.8772 193.978 68.1588C194.262 68.4405 194.404 68.7925 194.404 69.1446V73.5101H191.851H191.567Z" fill="#003E7E"/>
<path d="M190.007 70.1303C190.007 69.9191 189.936 69.7079 189.794 69.5671C189.652 69.4262 189.439 69.3558 189.227 69.3558C189.014 69.3558 188.801 69.4262 188.659 69.5671C188.517 69.7079 188.446 69.9191 188.446 70.1303V72.8764H190.078V70.1303H190.007ZM187.737 73.5101V70.1303C187.737 69.7079 187.879 69.3558 188.163 69.1446C188.446 68.8629 188.801 68.7221 189.156 68.7221C189.51 68.7221 189.936 68.8629 190.149 69.1446C190.432 69.4262 190.574 69.7783 190.574 70.1303V73.5101H188.021H187.737Z" fill="#003E7E"/>
<path d="M197.667 78.2981C197.667 78.0869 197.596 77.8756 197.454 77.7348C197.312 77.594 197.099 77.5236 196.886 77.5236C196.674 77.5236 196.461 77.594 196.319 77.7348C196.177 77.8756 196.106 78.0869 196.106 78.2981V81.0442H197.737V78.2981H197.667ZM195.397 81.6075V78.2277C195.397 77.8052 195.539 77.4532 195.823 77.2419C196.106 76.9603 196.461 76.8195 196.815 76.8195C197.17 76.8195 197.596 76.9603 197.808 77.2419C198.092 77.5236 198.234 77.8756 198.234 78.2277V81.6075H195.681H195.397Z" fill="#003E7E"/>
<path d="M193.837 77.2419C193.837 77.0307 193.766 76.8194 193.624 76.6786C193.482 76.5378 193.269 76.4674 193.056 76.4674C192.844 76.4674 192.631 76.5378 192.489 76.6786C192.347 76.8194 192.276 77.0307 192.276 77.2419V80.9738H193.908V77.2419H193.837ZM191.567 81.6075V77.2419C191.567 76.8194 191.709 76.4674 191.993 76.2562C192.276 75.9745 192.631 75.8337 192.986 75.8337C193.34 75.8337 193.766 75.9745 193.978 76.2562C194.262 76.5378 194.404 76.8899 194.404 77.2419V81.6075H191.851H191.567Z" fill="#003E7E"/>
<path d="M190.007 78.2981C190.007 78.0869 189.936 77.8756 189.794 77.7348C189.652 77.594 189.439 77.5236 189.227 77.5236C189.014 77.5236 188.801 77.594 188.659 77.7348C188.517 77.8756 188.446 78.0869 188.446 78.2981V81.0442H190.078V78.2981H190.007ZM187.737 81.6075V78.2277C187.737 77.8052 187.879 77.4532 188.163 77.2419C188.446 76.9603 188.801 76.8195 189.156 76.8195C189.51 76.8195 189.936 76.9603 190.149 77.2419C190.432 77.5236 190.574 77.8756 190.574 78.2277V81.6075H188.021H187.737Z" fill="#003E7E"/>
<path d="M195.468 64.4974H191.071C190.858 64.4974 190.574 64.3565 190.432 64.2157C190.29 64.0045 190.219 63.7932 190.219 63.5116L192.418 50.6966C192.489 50.2741 192.844 49.9925 193.269 49.9925C193.695 49.9925 194.049 50.2741 194.12 50.6966L196.319 63.5116C196.39 63.7228 196.319 64.0045 196.106 64.2157C195.964 64.3565 195.752 64.4974 195.468 64.4974ZM191.283 63.5116H195.326L193.34 51.7528L191.283 63.5116Z" fill="#003E7E"/>
<path d="M200.291 91.1131H186.106C185.751 91.1131 185.397 90.761 185.397 90.409V89.212H185.326C184.475 89.212 183.836 88.5078 183.836 87.7333V84.9168C183.836 84.2127 184.475 83.579 185.184 83.579H185.397V63.582C185.397 63.5116 185.397 63.4412 185.468 63.3708L186.886 59.3573C186.957 59.0756 187.241 58.9348 187.524 58.9348C187.808 58.9348 188.092 59.1461 188.163 59.3573L189.652 63.3708C189.652 63.4412 189.723 63.5116 189.723 63.6524V65.2015H197.028L197.099 63.4412L198.376 59.5685C198.447 59.2869 198.73 59.0756 199.014 59.0756C199.298 59.0756 199.582 59.2869 199.652 59.5685L200.929 63.3708C200.929 63.4412 201 63.5116 201 63.582V90.3386C201 90.761 200.645 91.1131 200.291 91.1131ZM186.46 90.1273H200.007V63.6524L199.014 60.7655L198.021 63.7228L197.95 65.4831C197.95 65.8352 197.667 66.1872 197.241 66.1872H189.368C189.227 66.1872 189.014 66.1168 188.872 65.976C188.73 65.8352 188.659 65.624 188.659 65.4831V63.7228L187.524 60.5543L186.39 63.7228V84.6352H185.184C184.971 84.6352 184.829 84.776 184.829 84.9872V87.8037C184.829 88.0854 185.042 88.2966 185.326 88.2966H186.39V90.1273H186.46ZM188.73 63.6524C188.73 63.7228 188.73 63.7228 188.73 63.6524V63.6524Z" fill="#003E7E"/>
<path d="M184.333 73.5101H151.211V70.6232H184.333V73.5101ZM152.204 72.5244H183.34V71.609H152.204V72.5244Z" fill="#003E7E"/>
<path d="M184.262 66.8209H151.282V67.8067H184.262V66.8209Z" fill="#003E7E"/>
<path d="M151.707 70.5528C151.566 70.5528 151.424 70.4824 151.353 70.412C151.14 70.2007 151.14 69.9191 151.353 69.7078L152.984 68.0884C153.197 67.8771 153.481 67.8771 153.693 68.0884C153.906 68.2996 153.906 68.5812 153.693 68.7925L152.062 70.412C151.92 70.4824 151.778 70.5528 151.707 70.5528Z" fill="#003E7E"/>
<path d="M154.403 70.5528C154.261 70.5528 154.119 70.4824 154.048 70.412C153.835 70.2007 153.835 69.9191 154.048 69.7078L155.679 68.0884C155.892 67.8771 156.176 67.8771 156.389 68.0884C156.601 68.2996 156.601 68.5812 156.389 68.7925L154.757 70.412C154.686 70.4824 154.544 70.5528 154.403 70.5528Z" fill="#003E7E"/>
<path d="M157.169 70.5528C157.027 70.5528 156.885 70.4824 156.814 70.412C156.601 70.2007 156.601 69.9191 156.814 69.7078L158.445 68.0884C158.658 67.8771 158.942 67.8771 159.155 68.0884C159.367 68.2996 159.367 68.5812 159.155 68.7925L157.523 70.412C157.452 70.4824 157.311 70.5528 157.169 70.5528Z" fill="#003E7E"/>
<path d="M159.935 70.5528C159.793 70.5528 159.651 70.4824 159.58 70.412C159.367 70.2007 159.367 69.9191 159.58 69.7078L161.211 68.0884C161.424 67.8771 161.708 67.8771 161.921 68.0884C162.133 68.2996 162.133 68.5812 161.921 68.7925L160.289 70.412C160.218 70.4824 160.077 70.5528 159.935 70.5528Z" fill="#003E7E"/>
<path d="M162.701 70.5528C162.559 70.5528 162.417 70.4824 162.346 70.412C162.133 70.2007 162.133 69.9191 162.346 69.7078L163.977 68.0884C164.19 67.8771 164.474 67.8771 164.687 68.0884C164.899 68.2996 164.899 68.5812 164.687 68.7925L163.055 70.412C162.914 70.4824 162.772 70.5528 162.701 70.5528Z" fill="#003E7E"/>
<path d="M165.396 70.5528C165.254 70.5528 165.112 70.4824 165.041 70.412C164.829 70.2007 164.829 69.9191 165.041 69.7078L166.673 68.0884C166.885 67.8771 167.169 67.8771 167.382 68.0884C167.595 68.2996 167.595 68.5812 167.382 68.7925L165.751 70.412C165.68 70.4824 165.538 70.5528 165.396 70.5528Z" fill="#003E7E"/>
<path d="M168.162 70.5528C168.02 70.5528 167.878 70.4824 167.807 70.412C167.595 70.2007 167.595 69.9191 167.807 69.7078L169.439 68.0884C169.651 67.8771 169.935 67.8771 170.148 68.0884C170.361 68.2996 170.361 68.5812 170.148 68.7925L168.517 70.412C168.446 70.4824 168.304 70.5528 168.162 70.5528Z" fill="#003E7E"/>
<path d="M170.928 70.5528C170.786 70.5528 170.644 70.4824 170.573 70.412C170.361 70.2007 170.361 69.9191 170.573 69.7078L172.205 68.0884C172.417 67.8771 172.701 67.8771 172.914 68.0884C173.127 68.2996 173.127 68.5812 172.914 68.7925L171.283 70.412C171.212 70.4824 171.07 70.5528 170.928 70.5528Z" fill="#003E7E"/>
<path d="M173.694 70.5528C173.552 70.5528 173.41 70.4824 173.339 70.412C173.127 70.2007 173.127 69.9191 173.339 69.7078L174.971 68.0884C175.183 67.8771 175.467 67.8771 175.68 68.0884C175.893 68.2996 175.893 68.5812 175.68 68.7925L174.049 70.412C173.907 70.4824 173.765 70.5528 173.694 70.5528Z" fill="#003E7E"/>
<path d="M176.389 70.5528C176.247 70.5528 176.106 70.4824 176.035 70.412C175.822 70.2007 175.822 69.9191 176.035 69.7078L177.666 68.0884C177.879 67.8771 178.162 67.8771 178.375 68.0884C178.588 68.2996 178.588 68.5812 178.375 68.7925L176.744 70.412C176.673 70.4824 176.531 70.5528 176.389 70.5528Z" fill="#003E7E"/>
<path d="M179.155 70.5528C179.013 70.5528 178.872 70.4824 178.801 70.412C178.588 70.2007 178.588 69.9191 178.801 69.7078L180.432 68.0884C180.645 67.8771 180.928 67.8771 181.141 68.0884C181.354 68.2996 181.354 68.5812 181.141 68.7925L179.51 70.412C179.439 70.4824 179.297 70.5528 179.155 70.5528Z" fill="#003E7E"/>
<path d="M181.921 70.5528C181.779 70.5528 181.638 70.4824 181.567 70.412C181.354 70.2007 181.354 69.9191 181.567 69.7078L183.198 68.0884C183.411 67.8771 183.694 67.8771 183.907 68.0884C184.12 68.2996 184.12 68.5812 183.907 68.7925L182.276 70.412C182.205 70.4824 182.063 70.5528 181.921 70.5528Z" fill="#003E7E"/>
<path d="M152.275 87.5925V84.0015L166.602 83.4382C166.885 83.4382 167.169 83.6494 167.169 83.9311C167.24 84.2127 167.027 84.4944 166.743 84.5648L152.275 87.5925ZM153.268 84.9168V86.3251L161.779 84.5648L153.268 84.9168Z" fill="#003E7E"/>
<path d="M183.269 87.5925L168.8 84.5648C168.517 84.4944 168.304 84.2127 168.375 83.9311C168.446 83.6494 168.658 83.3678 168.942 83.4382L183.269 84.0015V87.5925ZM173.765 84.5648L182.276 86.3251V84.9168L173.765 84.5648Z" fill="#003E7E"/>
</g>
<defs>
<clipPath id="clip0">
<rect width="201" height="94" fill="white"/>
</clipPath>
</defs>
</svg>
