<svg width="360" height="180" viewBox="0 0 144 83" fill="none" xmlns="http://www.w3.org/2000/svg">
<path d="M0 65.3978V47.1961C0 47.0248 -3.90342e-06 46.8106 0.0426249 46.468C0.0852536 46.1682 0.170512 45.6115 0.383656 44.8406C0.554171 44.0697 0.85257 43.3844 1.1936 42.7848C1.53463 42.1852 2.13143 41.6713 2.89875 41.2002C3.66607 40.7291 4.60391 40.4721 5.75488 40.4721C6.90586 40.4721 7.88632 40.6863 8.69627 41.1574C9.50621 41.6285 10.1456 42.1852 10.5293 42.8277C10.913 43.4701 11.2114 44.1125 11.4245 44.7977C11.6377 45.4401 11.7655 46.0397 11.7655 46.5108L11.8082 47.1961V51.436H7.58792V46.9391C7.54529 46.9391 7.54529 46.8535 7.58792 46.6821C7.63055 46.5108 7.58792 46.2967 7.50266 46.0826C7.4174 45.8684 7.33215 45.6115 7.24689 45.3545C7.16163 45.0975 6.99111 44.9262 6.73534 44.7549C6.47957 44.5836 6.18117 44.4979 5.84014 44.4979C5.37122 44.4979 4.98756 44.7121 4.73179 45.0975C4.47602 45.483 4.3055 45.8684 4.3055 46.2539L4.26288 46.8535V65.6976C4.26288 65.8689 4.26287 66.0831 4.3055 66.34C4.34813 66.597 4.47602 66.9396 4.73179 67.3679C4.98756 67.7962 5.37122 68.0103 5.84014 68.0103C6.39431 68.0103 6.8206 67.7962 7.119 67.4107C7.41741 67.0253 7.54529 66.597 7.54529 66.1687V65.612V61.1151H11.7655V65.355C11.7655 65.5263 11.7655 65.7405 11.7229 66.0831C11.6803 66.3829 11.595 66.9396 11.3819 67.7105C11.1687 68.4814 10.8703 69.1667 10.4867 69.7663C10.103 70.3658 9.50621 70.8798 8.65364 71.3509C7.84369 71.822 6.86323 72.0789 5.71225 72.0789C4.56128 72.0789 3.62344 71.8648 2.85613 71.3937C2.08881 70.9226 1.53463 70.3658 1.15098 69.7234C0.809945 69.081 0.51154 68.4386 0.341025 67.7534C0.17051 67.1109 0.0426288 66.5542 0 66.0831V65.3978Z" fill="#F89728"/>
<path d="M18.373 43.8555H14.579V71.7363H18.373V43.8555Z" fill="#F89728"/>
<path d="M19.9929 48.0526V43.8555H32.0142V48.0526H27.9218V71.7363H24.0853V48.0526H19.9929Z" fill="#F89728"/>
<path d="M32.3553 43.8555H36.3197L38.3659 52.7637L38.4085 53.0206H38.4512L38.5364 52.7637L40.4974 43.8555H44.2913L40.3268 59.8731V71.7363H36.5329V59.8731L32.3553 43.8555Z" fill="#F89728"/>
<path d="M45.5275 40.8576H49.6625L51.794 56.8751L51.9218 57.8602H51.8792L52.0071 56.8323L53.9254 40.8576H57.2078L59.1261 56.918L59.254 57.903L59.2114 57.8602L59.3392 56.8323L61.4707 40.8576H65.6483L61.5133 71.7363H58.0178L55.9289 57.0893L55.6732 55.2905H55.5027L55.2469 57.0893L53.1581 71.7363H49.6199L45.5275 40.8576Z" fill="#003E7E"/>
<path d="M66.5435 65.9974V49.5944C66.5435 49.4659 66.5435 49.2518 66.5861 48.952C66.6288 48.695 66.714 48.1811 66.8845 47.4959C67.0551 46.8106 67.3108 46.1682 67.6092 45.6543C67.9503 45.1403 68.4618 44.6264 69.1439 44.1981C69.8259 43.7699 70.7211 43.5557 71.7442 43.5557C72.7673 43.5557 73.6199 43.7699 74.3446 44.1981C75.0266 44.6264 75.5382 45.0975 75.8792 45.6971C76.2202 46.2967 76.4334 46.8535 76.6039 47.453C76.7744 48.0526 76.8597 48.5666 76.9023 48.9948L76.9449 49.5944V65.9974C76.9449 66.1259 76.9449 66.34 76.9023 66.6398C76.8597 66.8968 76.7744 67.4107 76.6039 68.096C76.4334 68.7812 76.1776 69.4236 75.8792 69.9376C75.5382 70.4515 75.0266 70.9654 74.3446 71.3937C73.6625 71.822 72.7673 72.0361 71.7442 72.0361C70.7211 72.0361 69.8686 71.822 69.1439 71.4365C68.4618 71.0083 67.9503 70.5372 67.6092 69.9376C67.2682 69.338 67.0551 68.7812 66.8845 68.1816C66.714 67.582 66.6288 67.0681 66.5861 66.6827L66.5435 65.9974ZM70.3801 66.2972C70.3801 66.4685 70.3801 66.6398 70.3801 66.8968C70.3801 67.1538 70.508 67.4536 70.7211 67.839C70.9343 68.2245 71.2753 68.4386 71.7016 68.4386C72.1279 68.4386 72.4689 68.2673 72.6821 67.9247C72.8952 67.582 73.0231 67.1966 73.0231 66.854L73.0657 66.34V49.3375C73.0657 49.1661 73.0657 48.9948 73.0657 48.7379C73.0657 48.4809 72.9378 48.1811 72.7247 47.7957C72.5115 47.4102 72.1705 47.1961 71.7442 47.1961C71.3179 47.1961 70.9769 47.3674 70.7638 47.7528C70.5506 48.0955 70.4227 48.4381 70.4227 48.7807L70.3801 49.3375V66.2972Z" fill="#003E7E"/>
<path d="M80.1847 71.7363V43.8555H83.8508L87.8152 58.3741L88.1563 59.6589H88.3694V58.3741V43.8555H92.1634V71.7363H88.4547L84.5328 57.1749L84.1918 55.8901H83.9787V57.2177V71.7363H80.1847Z" fill="#003E7E"/>
<path d="M95.0621 71.7363V43.8555H98.1314C99.1971 43.8555 100.092 43.9412 100.817 44.0697C101.542 44.1981 102.224 44.4123 102.778 44.6692C103.332 44.9262 103.801 45.3545 104.185 45.9112C104.568 46.468 104.824 47.0676 105.08 47.6672C105.293 48.2668 105.464 49.1233 105.591 50.2368C105.677 51.3504 105.762 52.421 105.805 53.5346C105.847 54.6053 105.847 56.0186 105.847 57.7745C105.847 59.5304 105.847 60.9438 105.805 62.0144C105.762 63.0851 105.677 64.1558 105.591 65.2693C105.506 66.3829 105.336 67.2394 105.08 67.839C104.867 68.4386 104.568 69.0382 104.185 69.5949C103.801 70.1517 103.375 70.58 102.778 70.8369C102.224 71.0939 101.542 71.308 100.817 71.4793C100.092 71.6507 99.1971 71.6935 98.1314 71.6935H95.0621V71.7363ZM98.8561 67.6249C100.007 67.6249 100.774 67.3679 101.115 66.854C101.584 66.1687 101.84 64.1987 101.883 60.9438V57.7745V56.8323C101.883 52.7637 101.712 50.2797 101.414 49.3803C101.115 48.5666 100.561 48.0955 99.7087 48.0098C99.4955 47.967 99.1971 47.967 98.8561 47.967V67.6249Z" fill="#003E7E"/>
<path d="M109.087 71.7363V43.8555H118.38V48.0526H112.881V55.3762H116.931V59.8731H112.881V67.5392H118.38V71.7363H109.087Z" fill="#003E7E"/>
<path d="M120.639 71.7363V43.8555H124.561C129.037 43.8555 131.297 46.5537 131.297 51.9071C131.297 55.1192 130.615 57.2177 129.25 58.2456L131.851 71.6935H127.929L125.798 59.9159H124.433V71.6935H120.639V71.7363ZM124.476 56.1899C124.86 56.1899 125.201 56.1471 125.457 56.1042C125.712 56.0614 126.053 55.8901 126.394 55.6331C126.778 55.3762 127.034 54.9907 127.247 54.3483C127.417 53.7487 127.545 52.9778 127.545 52.0356C127.545 51.0934 127.46 50.3225 127.247 49.7229C127.034 49.1233 126.778 48.695 126.394 48.4381C126.011 48.1811 125.712 48.0526 125.457 47.967C125.201 47.9241 124.86 47.8813 124.476 47.8813V56.1899Z" fill="#003E7E"/>
<path d="M132.703 63.9845L136.497 63.5991C136.497 66.8111 137.137 68.3958 138.416 68.3958C139.524 68.3958 140.078 67.3679 140.121 65.2693C140.121 64.8839 140.078 64.5413 139.993 64.1558C139.908 63.7704 139.737 63.2993 139.481 62.7853C139.226 62.2286 139.012 61.8431 138.885 61.5862L137.904 60.0872C137.435 59.3591 137.137 58.9309 137.052 58.7595C136.284 57.5604 135.645 56.5753 135.176 55.8473C134.707 55.1192 134.281 54.177 133.897 53.1063C133.513 51.9928 133.3 50.9649 133.3 50.0227C133.3 48.3524 133.726 46.8535 134.579 45.5686C135.432 44.2838 136.71 43.6414 138.458 43.5986H138.629C139.694 43.5986 140.547 43.8127 141.314 44.241C142.082 44.7121 142.679 45.3117 143.02 46.0826C143.361 46.8535 143.616 47.6244 143.787 48.3953C143.915 49.1662 144 49.9799 144 50.8793L140.206 51.2647C140.206 48.5666 139.652 47.1961 138.544 47.1961C137.606 47.2389 137.137 48.1811 137.137 50.0227C137.137 50.2368 137.179 50.4938 137.222 50.7508C137.265 51.0077 137.35 51.2647 137.478 51.4788C137.563 51.693 137.734 51.9499 137.904 52.2926C138.117 52.6352 138.245 52.8493 138.373 53.0206C138.501 53.192 138.671 53.4489 138.885 53.8344L139.396 54.6053L139.993 55.5046L140.547 56.3612L142.465 59.3163C142.764 59.9159 143.105 60.8153 143.446 61.9288C143.787 63.0851 143.957 64.113 143.957 65.0552C143.957 69.6806 142.124 71.9933 138.458 71.9505C137.478 71.9505 136.625 71.7791 135.901 71.4794C135.176 71.1796 134.622 70.7941 134.238 70.323C133.812 69.8519 133.513 69.2523 133.3 68.5243C133.087 67.7962 132.917 67.0681 132.831 66.3829C132.703 65.7405 132.703 64.9267 132.703 63.9845Z" fill="#003E7E"/>
<path d="M138.799 22.7415L140.163 27.1956V28.5232H139.012H138.416H137.265V27.1956L138.629 22.7415H138.799Z" fill="#003E7E"/>
<path d="M114.927 28.3947C114.885 28.6089 114.885 28.823 114.885 29.0372V30.1078V30.7931V38.8875V38.9732C114.927 39.1873 115.14 39.1873 115.481 39.1873L118.21 41.8426H120.17H121.066C121.407 41.8426 121.748 41.8426 121.705 41.6285V40.9432L126.693 38.9303C126.863 38.8447 126.991 38.6734 126.991 38.4592C126.948 38.2879 126.778 38.1166 126.607 38.1594L121.748 38.759C121.748 38.4164 121.449 38.1166 121.108 38.1166H120.639V34.3478H135.858V38.1166H135.389C135.048 38.1166 134.75 38.4164 134.75 38.759L129.847 38.1594C129.677 38.1166 129.464 38.2879 129.464 38.4592C129.421 38.6734 129.549 38.8447 129.762 38.9303L134.75 40.9432V41.6285C134.75 41.8426 135.176 41.8426 135.517 41.8426H136.625H136.924H141.101C141.442 41.8426 141.613 41.8426 141.613 41.6285V41.5428V30.7931V30.1078V29.0372C141.613 28.823 141.613 28.6089 141.57 28.3947C141.528 28.2234 141.528 28.0521 141.485 27.9236L141.101 26.4675C141.101 26.4675 141.101 26.4247 141.059 26.4247C141.059 26.4247 141.016 26.4247 141.016 26.4675L140.632 27.9236C140.547 28.3091 140.504 28.6945 140.504 29.08V29.5083H136.966V29.08C136.966 28.6945 136.924 28.3091 136.838 27.9236L136.455 26.4675C136.455 26.4675 136.455 26.4247 136.412 26.4247C136.412 26.4247 136.369 26.4247 136.369 26.4675L135.986 27.9236C135.901 28.3091 135.858 28.6945 135.858 29.08V30.065H120.639V29.08C120.639 28.6945 120.597 28.3091 120.512 27.9236L120.128 26.4675C120.128 26.4675 120.128 26.4247 120.085 26.4247C120.085 26.4247 120.043 26.4247 120.043 26.4675L119.659 27.9236C119.574 28.3091 119.531 28.6945 119.531 29.08V29.5083H115.993V29.08C115.993 28.6945 115.95 28.3091 115.865 27.9236L115.481 26.4675C115.481 26.4675 115.481 26.4247 115.439 26.4247C115.439 26.4247 115.396 26.4247 115.396 26.4675L115.012 27.9236C114.97 28.0949 114.927 28.2234 114.927 28.3947ZM119.531 33.7482H118.636V33.5341H118.721V32.2492H119.446V33.5341H119.531V33.7482ZM135.645 30.6646L134.579 31.6925L133.513 30.6646H135.645ZM132.533 30.6646L131.467 31.6925L130.401 30.6646H132.533ZM129.464 30.6646L128.398 31.6925L127.332 30.6646H129.464ZM126.352 30.6646L125.286 31.6925L124.22 30.6646H126.352ZM123.282 30.6646L122.217 31.6925L121.151 30.6646H123.282ZM119.531 38.1594H118.636V37.9453H118.721V36.6605H119.446V37.9453H119.531V38.1594ZM137.648 33.7482H136.753V33.5341H136.838V32.2492H137.563V33.5341H137.648V33.7482ZM137.648 38.1594H136.753V37.9453H136.838V36.6605H137.563V37.9453H137.648V38.1594ZM139.652 37.9453H139.737V36.6605H140.462V37.9453H140.547V38.1594H139.652V37.9453ZM139.652 33.5341H139.737V32.2492H140.462V33.5341H140.547V33.7482H139.652V33.5341ZM138.117 37.9025H138.245V36.4035H139.055V37.9025H139.183V38.1594H138.117V37.9025ZM138.117 33.4912H138.245V31.9923H139.055V33.4912H139.183V33.7482H138.117V33.4912ZM134.835 32.3349L135.815 31.3927V32.3349H134.835ZM131.723 32.3349L133.002 31.1357L134.281 32.3349H131.723ZM128.654 32.3349L129.932 31.1357L131.211 32.3349H128.654ZM125.542 32.3349L126.821 31.1357L128.099 32.3349H125.542ZM122.472 32.3349L123.751 31.1357L125.03 32.3349H122.472ZM120.639 32.3349V31.1357L121.918 32.3349H120.639ZM117.101 37.9025H117.229V36.4035H118.039V37.9025H118.167V38.1594H117.101V37.9025ZM117.101 33.4912H117.229V31.9923H118.039V33.4912H118.167V33.7482H117.101V33.4912ZM115.694 37.9453H115.78V36.6605H116.504V37.9453H116.59V38.1594H115.694V37.9453ZM115.694 33.5341H115.78V32.2492H116.504V33.5341H116.59V33.7482H115.694V33.5341Z" fill="#003E7E"/>
<path d="M116.291 28.5232V27.1956L117.655 22.7415H117.826L119.19 27.1956V28.5232H118.039H117.442H116.291Z" fill="#003E7E"/>
<path d="M88.9236 38.5021V37.2172C89.0941 37.0459 89.222 36.8746 89.222 36.7033C89.222 36.4892 89.0941 36.3179 88.9236 36.1894V35.2472C87.2184 33.8767 82.2309 33.5341 81.0799 33.4912C79.9289 33.4056 80.3552 33.7054 80.0568 33.7054C79.7158 33.7054 79.5453 33.7054 79.119 33.791C78.5222 33.9195 78.8632 34.1336 78.1385 34.048C77.3712 33.9623 77.4991 33.5341 77.0728 33.5769C76.6039 33.5769 76.6039 33.8767 76.3055 33.7482C76.0071 33.6197 75.5808 31.0929 75.4103 30.7931C75.2397 30.4933 74.7282 30.4505 74.5577 30.1507C74.4298 29.8509 73.4493 28.0093 73.3641 27.7095C73.1936 27.2812 72.8099 27.4525 72.8099 27.4525C69.2291 28.2663 67.5666 30.9216 67.5666 30.9216V34.2193C67.3961 34.4334 67.3108 34.6476 67.3108 34.9045C67.3108 35.1615 67.3961 35.3756 67.5666 35.5898V36.3179C67.3961 36.4463 67.3108 36.6605 67.3108 36.8318C67.3108 37.0031 67.3961 37.2172 67.5666 37.3457V38.6734C67.3961 38.759 67.3108 38.8875 67.3108 38.9732C67.3108 39.1016 67.3961 39.1873 67.5666 39.273V42.0139H89.0088V39.273C89.1793 39.1873 89.3072 39.0588 89.3072 38.9732C89.1794 38.6734 89.0941 38.5877 88.9236 38.5021ZM69.3143 39.5299V41.4143H68.1634V39.5299C68.1634 39.1873 68.4191 38.9303 68.7175 38.9303C69.0586 38.8875 69.3143 39.1873 69.3143 39.5299ZM69.3143 36.4035V37.9025C68.9307 37.9453 68.547 38.031 68.1634 38.0738V36.4035C68.1634 36.4035 68.1634 36.4035 68.1634 36.3607C68.1634 36.0181 68.4191 35.8039 68.7175 35.7611C69.0159 35.7183 69.3143 36.0609 69.3143 36.4035ZM69.3143 33.1914V34.6904C68.9307 34.7761 68.547 34.8617 68.1634 34.9474V33.4484C68.1207 32.9773 68.4191 32.7203 68.7175 32.6347C69.0586 32.549 69.3143 32.7203 69.3143 33.1914ZM71.4032 39.2301V41.4143H70.039V39.2301C70.039 39.2301 70.039 39.2301 70.039 39.1873C70.039 38.8447 70.3374 38.5877 70.7211 38.5877C71.1048 38.5877 71.4032 38.8875 71.4032 39.2301ZM71.4032 35.9324V37.6883C70.9342 37.7312 70.5079 37.774 70.039 37.8596V35.9752C70.039 35.6326 70.3374 35.4185 70.7211 35.3756C71.0621 35.2472 71.4032 35.4185 71.4032 35.9324ZM71.4458 32.5918V34.3478C70.9769 34.4334 70.5506 34.4763 70.0817 34.5619V32.7632C70.0817 32.3777 70.3801 32.1207 70.7637 32.0351C71.1048 31.9494 71.4458 32.1207 71.4458 32.5918ZM73.7477 39.016V41.4572H72.2557V39.016C72.2557 38.6734 72.5968 38.4164 72.9804 38.4164C73.4067 38.3736 73.7477 38.6305 73.7477 39.016C73.7477 38.9732 73.7477 38.9732 73.7477 39.016ZM73.7477 35.5041V37.4742C73.2362 37.517 72.7246 37.5599 72.2557 37.6027V35.5041C72.2557 35.1615 72.5968 34.9474 72.9804 34.9045C73.4067 34.8189 73.7477 35.1615 73.7477 35.5041ZM73.7904 32.2064V34.048C73.2788 34.0908 72.7673 34.1336 72.2984 34.2193V32.2492C72.2984 31.9494 72.6394 31.7353 73.023 31.6925C73.4067 31.564 73.7904 31.7781 73.7904 32.2064ZM76.3055 38.759V41.4143H74.6429V38.759C74.6429 38.4164 75.0266 38.1594 75.4955 38.1594C75.9644 38.1166 76.3055 38.3736 76.3055 38.759C76.3055 38.7162 76.3055 38.7162 76.3055 38.759ZM76.3055 35.0759V37.3457C75.7513 37.3457 75.1971 37.3885 74.6429 37.4314V35.1187C74.6429 34.7761 75.0266 34.5619 75.4955 34.5191C75.9644 34.3906 76.3055 34.7332 76.3055 35.0759ZM79.0337 38.6305V41.4143H77.3712V38.6305C77.3712 38.2879 77.7548 38.031 78.2238 38.031C78.65 37.9881 79.0337 38.2879 79.0337 38.6305ZM83.6376 38.759V41.4143H81.9751V38.759C81.9751 38.4164 82.3587 38.1594 82.8277 38.1594C83.254 38.1166 83.6376 38.3736 83.6376 38.759C83.6376 38.7162 83.6376 38.7162 83.6376 38.759ZM83.6376 35.0759V37.4742C83.0834 37.4314 82.5293 37.3885 81.9751 37.3885V35.0759C81.9751 34.7332 82.3587 34.4763 82.8277 34.4763C83.254 34.4334 83.6376 34.7332 83.6376 35.0759ZM86.0248 39.016V41.4572H84.5328V39.016C84.5328 38.6734 84.8738 38.4164 85.2575 38.4164C85.7264 38.3736 86.0248 38.6305 86.0248 39.016C86.0248 38.9732 86.0248 38.9732 86.0248 39.016ZM86.0248 35.5041V37.6883C85.5559 37.6455 85.0444 37.6027 84.5328 37.5599V35.5041C84.5328 35.1615 84.8738 34.9045 85.2575 34.9045C85.7264 34.8617 86.0248 35.1615 86.0248 35.5041ZM88.2415 39.2301V41.4143H86.92V39.2301C86.92 39.2301 86.92 39.2301 86.92 39.1873C86.92 38.8447 87.2184 38.5877 87.6021 38.5877C87.9431 38.5877 88.2415 38.8875 88.2415 39.2301ZM88.2415 36.0609V37.9881C87.8152 37.9025 87.3463 37.8596 86.8774 37.8168V36.0609C86.8774 35.7183 87.1758 35.4613 87.5595 35.4613C87.9431 35.4185 88.2415 35.6754 88.2415 36.0609C88.2415 36.0181 88.2415 36.0609 88.2415 36.0609Z" fill="#003E7E"/>
<path d="M112.583 32.8916V30.4076H111.304C110.494 28.7374 109.812 27.0243 109.258 25.1827V23.0413H108.618C107.254 17.8163 106.7 11.9917 106.742 5.05366H107.126V3.16925H106.742C106.742 2.99794 106.742 2.82663 106.742 2.65531H106.018V0H105.634V2.61249H104.909C104.909 2.7838 104.909 2.95511 104.909 3.12642H104.526V5.05366H104.909C104.952 11.9917 104.398 17.8591 103.034 23.0413H102.394V25.1827C101.84 26.9814 101.158 28.6945 100.348 30.4076H99.0693V32.8916C97.3215 35.9752 95.1474 38.9303 92.4192 41.8426H97.0231C97.6625 37.9025 101.371 34.9045 105.805 34.9045C110.238 34.9045 113.904 37.9025 114.586 41.8426H119.19C116.504 38.9303 114.33 35.9752 112.583 32.8916ZM105.847 30.1935C105.208 30.1935 103.247 30.2363 103.162 30.1935L104.398 26.1677H107.297L108.533 30.1935C108.448 30.2363 106.444 30.2363 105.847 30.1935Z" fill="#003E7E"/>
<path d="M88.3695 9.80753L88.4547 10.6641L89.0515 11.0067C89.3499 11.0067 89.6483 11.0067 89.9467 11.0495L90.5862 10.6641L90.6288 9.72188H90.4156C90.6288 9.55056 90.6288 9.12229 90.5862 8.69401C90.5435 8.26573 89.8188 7.15222 89.8188 7.15222C89.8615 7.40918 89.5631 7.49484 89.5631 7.49484C89.6483 7.19504 89.0089 6.38132 89.0089 6.21001V7.23787C89.0089 7.66615 88.9663 7.83746 88.54 8.39422C88.1137 8.95098 88.5826 9.85036 88.5826 9.85036L88.3695 9.80753Z" fill="#003E7E"/>
<path d="M96.8526 40.7291C96.8526 40.7291 97.2789 40.8148 95.9148 40.3008C94.5507 39.7869 94.5506 39.1017 94.5506 39.1017C94.4654 38.759 94.4654 36.8746 94.7212 35.3328C94.9769 33.791 94.9769 32.5919 94.8917 31.4783C94.8064 30.3648 94.3801 30.9644 94.9769 29.5083C95.5737 28.0521 96.5968 26.6816 96.6821 26.4247C96.81 26.1249 96.7247 25.7823 96.5968 25.4825C96.469 25.1827 95.9148 24.4118 95.7443 24.7116C95.5737 25.0114 94.5506 24.8829 94.7212 24.2833C94.8917 23.6837 94.7212 21.9706 94.5506 21.7136C94.3801 21.4567 93.5276 21.8849 93.8686 20.2575C94.2096 18.63 94.0391 18.0305 94.0391 18.0305C93.1013 17.1739 91.9077 17.8163 91.9077 17.8163C91.6519 17.8591 90.7567 18.63 90.7567 18.63C90.7567 18.63 90.5862 18.3302 90.4157 17.3024C90.7141 16.0604 90.1173 13.0196 90.1173 13.0196C90.7993 12.2915 90.0746 11.6491 90.0746 11.6491C89.9041 11.2637 89.9041 11.0495 89.9041 10.9211C89.6057 10.9211 89.3073 10.8782 89.0089 10.8782C89.0942 11.6063 89.0089 11.8633 89.0089 11.8633C88.4974 12.2059 89.1794 13.1481 89.1794 13.1481C89.1794 13.919 88.8384 15.8034 89.0942 16.7456C89.3499 17.6878 89.4352 17.9448 88.6679 18.8014C87.9006 19.6579 88.6679 21.9706 89.0942 22.9128C89.5205 23.855 87.9858 24.7972 87.9858 25.3112C87.9858 25.8251 88.6253 26.7245 88.6679 27.1956C88.7105 27.6667 88.4121 27.581 88.4121 27.8808C88.4121 28.1806 88.9237 31.3927 88.9237 32.4205C88.9237 33.4484 87.9858 34.3906 88.3268 36.7033C88.6679 39.016 87.0906 39.3158 86.8348 39.5299C86.4086 39.9154 85.8117 39.4871 85.5986 39.8297C85.3855 40.1724 84.7034 41.7998 85.4707 41.8426C86.238 41.8855 88.9237 41.8855 88.9237 41.8855H96.9805L96.8526 40.7291Z" fill="#003E7E"/>
<path d="M92.8028 14.4329L92.6323 18.7585H92.9734L92.8028 14.4329Z" fill="#003E7E"/>
<path d="M94.5933 15.0325L93.1439 18.6729L93.4423 18.8013L94.5933 15.0325Z" fill="#003E7E"/>
<path d="M96.4263 16.5315L93.0586 18.5872L93.2291 18.887L96.4263 16.5315Z" fill="#003E7E"/>
<path d="M96.2984 18.4159L93.2718 18.9298L93.3571 19.2724L96.2984 18.4159Z" fill="#003E7E"/>
<path d="M90.9698 15.0325L92.4192 18.6729L92.0782 18.8013L90.9698 15.0325Z" fill="#003E7E"/>
<path d="M89.1368 16.5315L92.4618 18.5872L92.2913 18.887L89.1368 16.5315Z" fill="#003E7E"/>
<path d="M89.222 18.4159L92.2486 18.9298L92.1634 19.2724L89.222 18.4159Z" fill="#003E7E"/>
<path d="M0.767334 77.0898H3.83661V77.7322H1.53465V79.6166H3.66609V80.2162H1.53465V82.8287H0.767334V77.0898Z" fill="#003E7E"/>
<path d="M5.20073 81.0299L4.60392 82.8287H3.83661L5.79753 77.0898H6.69274L8.65366 82.8287H7.88634L7.28954 81.0299H5.20073ZM7.07639 80.4303L6.52222 78.8029C6.39433 78.4174 6.30907 78.0748 6.22382 77.775C6.13856 78.1176 6.0533 78.4603 5.92542 78.8029L5.37124 80.4732H7.07639V80.4303Z" fill="#003E7E"/>
<path d="M14.2806 80.3019C14.238 79.4881 14.1954 78.5459 14.1954 77.8179C13.9822 78.4603 13.7691 79.1884 13.4707 80.0021L12.4476 82.7859H11.8934L10.9556 80.0449C10.6998 79.2312 10.444 78.5031 10.3162 77.8179C10.3162 78.5459 10.2735 79.4881 10.1883 80.3447L10.0178 82.7859H9.33569L9.71935 77.047H10.6572L11.6376 79.8308C11.8934 80.516 12.0639 81.1584 12.1918 81.758C12.3623 81.2012 12.5329 80.5588 12.7886 79.8308L13.8117 77.047H14.7495L15.0906 82.7859H14.3659L14.2806 80.3019Z" fill="#003E7E"/>
<path d="M21.1865 79.9164C21.1865 81.8865 19.9929 82.9143 18.5435 82.9143C17.0515 82.9143 15.9858 81.7152 15.9858 80.0021C15.9858 78.2033 17.0941 77.0041 18.6288 77.0041C20.206 77.0041 21.1865 78.2033 21.1865 79.9164ZM16.7531 80.0021C16.7531 81.2441 17.3925 82.3147 18.5861 82.3147C19.7371 82.3147 20.4192 81.2441 20.4192 79.9164C20.4192 78.7601 19.8224 77.5609 18.5861 77.5609C17.3925 77.6037 16.7531 78.7601 16.7531 80.0021Z" fill="#003E7E"/>
<path d="M22.9343 77.0898V80.4732C22.9343 81.758 23.4885 82.2719 24.2558 82.2719C25.1083 82.2719 25.6625 81.7152 25.6625 80.4732V77.0898H26.3872V80.4303C26.3872 82.1863 25.4494 82.9143 24.2131 82.9143C23.0622 82.9143 22.167 82.2719 22.167 80.4732V77.0898H22.9343Z" fill="#003E7E"/>
<path d="M27.6234 81.9293C27.9645 82.1435 28.4334 82.3148 28.9449 82.3148C29.7122 82.3148 30.1385 81.9293 30.1385 81.3297C30.1385 80.8158 29.8401 80.4732 29.0728 80.2162C28.135 79.8736 27.5808 79.4025 27.5808 78.5888C27.5808 77.6894 28.3055 77.047 29.4138 77.047C29.968 77.047 30.4369 77.1755 30.6501 77.3468L30.4369 77.9463C30.2664 77.8179 29.8828 77.6894 29.3712 77.6894C28.6039 77.6894 28.3055 78.1605 28.3055 78.5459C28.3055 79.0599 28.6465 79.3597 29.4565 79.6595C30.4369 80.0449 30.9058 80.516 30.9058 81.3297C30.9058 82.2291 30.2664 83 28.9023 83C28.3481 83 27.7513 82.8287 27.4529 82.6146L27.6234 81.9293Z" fill="#003E7E"/>
<path d="M33.6767 81.9293C34.0178 82.1435 34.4867 82.3148 34.9982 82.3148C35.7656 82.3148 36.1918 81.9293 36.1918 81.3297C36.1918 80.8158 35.8934 80.4732 35.1261 80.2162C34.1883 79.8736 33.6341 79.4025 33.6341 78.5888C33.6341 77.6894 34.3588 77.047 35.4672 77.047C36.0213 77.047 36.4902 77.1755 36.7034 77.3468L36.4902 77.9463C36.3197 77.8179 35.9361 77.6894 35.4245 77.6894C34.6572 77.6894 34.3588 78.1605 34.3588 78.5459C34.3588 79.0599 34.6998 79.3597 35.5098 79.6595C36.4902 80.0449 36.9592 80.516 36.9592 81.3297C36.9592 82.2291 36.3197 83 34.9556 83C34.4014 83 33.8046 82.8287 33.5062 82.6146L33.6767 81.9293Z" fill="#003E7E"/>
<path d="M38.7069 77.0898H37.9822V82.8287H38.7069V77.0898Z" fill="#003E7E"/>
<path d="M44.4192 82.5717C44.0782 82.7002 43.4387 82.8715 42.6714 82.8715C41.8188 82.8715 41.0942 82.6574 40.54 82.1006C40.0711 81.6295 39.73 80.8586 39.73 79.9592C39.73 78.2461 40.9236 77.0041 42.7993 77.0041C43.4387 77.0041 43.9929 77.1326 44.2487 77.2611L44.0782 77.8607C43.7798 77.7322 43.3961 77.6037 42.7993 77.6037C41.3926 77.6037 40.4974 78.4603 40.4974 79.9164C40.4974 81.3725 41.3499 82.2291 42.7141 82.2291C43.183 82.2291 43.524 82.1434 43.6945 82.0578V80.3447H42.5435V79.7451H44.4192V82.5717Z" fill="#003E7E"/>
<path d="M46.3375 77.0898V79.4881H49.0657V77.0898H49.833V82.8287H49.0657V80.1305H46.3375V82.8287H45.5702V77.0898H46.3375Z" fill="#003E7E"/>
<path d="M52.2203 77.7322H50.5151V77.0898H54.7354V77.7322H52.9876V82.8287H52.2203V77.7322Z" fill="#003E7E"/>
<path d="M55.2469 81.9293C55.5879 82.1435 56.0568 82.3148 56.5684 82.3148C57.3357 82.3148 57.762 81.9293 57.762 81.3297C57.762 80.8158 57.4636 80.4732 56.6963 80.2162C55.7585 79.8736 55.2043 79.4025 55.2043 78.5888C55.2043 77.6894 55.929 77.047 57.0373 77.047C57.5915 77.047 58.0604 77.1755 58.2735 77.3468L58.0604 77.9463C57.8899 77.8179 57.5062 77.6894 56.9947 77.6894C56.2274 77.6894 55.929 78.1605 55.929 78.5459C55.929 79.0599 56.27 79.3597 57.0799 79.6595C58.0604 80.0449 58.5293 80.516 58.5293 81.3297C58.5293 82.2291 57.8899 83 56.5258 83C55.9716 83 55.3748 82.8287 55.0764 82.6146L55.2469 81.9293Z" fill="#003E7E"/>
<path d="M59.3819 82.4004C59.3819 82.1006 59.595 81.8865 59.8934 81.8865C60.1918 81.8865 60.405 82.1006 60.405 82.4004C60.405 82.7002 60.1918 82.9572 59.8934 82.9572C59.595 82.9143 59.3819 82.7002 59.3819 82.4004Z" fill="#003E7E"/>
<path d="M63.9432 77.0898V80.4732C63.9432 81.758 64.4973 82.2719 65.2647 82.2719C66.1172 82.2719 66.6714 81.7152 66.6714 80.4732V77.0898H67.3961V80.4303C67.3961 82.1863 66.4583 82.9143 65.222 82.9143C64.0711 82.9143 63.1758 82.2719 63.1758 80.4732V77.0898H63.9432Z" fill="#F89728"/>
<path d="M68.7602 82.8287V77.0898H69.5701L71.4032 80.0021C71.8295 80.6873 72.1705 81.2869 72.4263 81.8437H72.4689C72.3836 81.0728 72.3836 80.3875 72.3836 79.4881V77.0898H73.0657V82.8287H72.341L70.5506 79.9164C70.1669 79.274 69.7833 78.6316 69.4849 77.9892H69.4423C69.4849 78.7172 69.4849 79.4025 69.4849 80.3447V82.7859H68.7602V82.8287Z" fill="#F89728"/>
<path d="M77.286 80.1305H75.1119V82.1863H77.5418V82.8287H74.3446V77.0898H77.4139V77.7322H75.1119V79.531H77.286V80.1305Z" fill="#F89728"/>
<path d="M81.6768 82.8287L80.9521 81.5439C80.6537 81.0728 80.4832 80.7301 80.3127 80.4303C80.1421 80.773 79.9716 81.0728 79.7159 81.5867L79.0338 82.8287H78.1812L79.929 79.9164L78.2665 77.0898H79.1191L79.8864 78.4174C80.0995 78.8029 80.27 79.0599 80.3979 79.4025H80.4405C80.611 79.0599 80.7389 78.8029 80.9521 78.4174L81.7194 77.0898H82.572L80.8242 79.8736L82.6146 82.8287H81.6768Z" fill="#F89728"/>
<path d="M83.4245 77.1755C83.7655 77.1326 84.2345 77.047 84.8313 77.047C85.5559 77.047 86.1101 77.2183 86.4085 77.5181C86.7069 77.775 86.9201 78.2033 86.9201 78.7172C86.9201 79.2312 86.7495 79.6595 86.4938 79.9592C86.1101 80.3875 85.4707 80.6017 84.746 80.6017C84.5329 80.6017 84.3197 80.6017 84.1492 80.5588V82.8715H83.4245V77.1755ZM84.1918 79.9164C84.3623 79.9593 84.5755 79.9592 84.7886 79.9592C85.6838 79.9592 86.238 79.531 86.238 78.7601C86.238 77.9892 85.6838 77.6466 84.8739 77.6466C84.5329 77.6466 84.3197 77.6894 84.1918 77.6894V79.9164Z" fill="#F89728"/>
<path d="M90.9272 80.1305H88.7105V82.1863H91.1829V82.8287H87.9858V77.0898H91.0551V77.7322H88.7105V79.531H90.9272V80.1305Z" fill="#F89728"/>
<path d="M96.1706 82.6574C95.9148 82.7859 95.3606 82.9143 94.6786 82.9143C93.0587 82.9143 91.8651 81.8865 91.8651 80.0021C91.8651 78.2033 93.0587 77.0041 94.8491 77.0041C95.5311 77.0041 96 77.1754 96.2132 77.2611L96.0427 77.8607C95.7869 77.7322 95.3606 77.6037 94.8917 77.6037C93.5702 77.6037 92.675 78.4603 92.675 79.9592C92.675 81.3725 93.4849 82.2719 94.8491 82.2719C95.318 82.2719 95.7443 82.1863 96.0427 82.015L96.1706 82.6574Z" fill="#F89728"/>
<path d="M98.4725 77.7322H96.7247V77.0898H100.945V77.7322H99.2398V82.8287H98.4725V77.7322Z" fill="#F89728"/>
<path d="M104.568 80.1305H102.394V82.1863H104.867V82.8287H101.627V77.0898H104.739V77.7322H102.394V79.531H104.568V80.1305Z" fill="#F89728"/>
<path d="M105.847 77.1755C106.316 77.0898 106.828 77.047 107.424 77.047C108.49 77.047 109.215 77.3039 109.726 77.775C110.238 78.2461 110.536 78.8886 110.536 79.8308C110.536 80.773 110.238 81.5439 109.726 82.0578C109.172 82.5717 108.32 82.8715 107.211 82.8715C106.7 82.8715 106.231 82.8287 105.89 82.7859V77.1755H105.847ZM106.615 82.2291C106.785 82.2719 107.083 82.2719 107.339 82.2719C108.917 82.2719 109.769 81.3726 109.769 79.8308C109.769 78.4603 109.002 77.6037 107.467 77.6037C107.083 77.6037 106.785 77.6466 106.615 77.6894V82.2291Z" fill="#F89728"/>
<path d="M114.117 77.0898H113.393V82.8287H114.117V77.0898Z" fill="#F89728"/>
<path d="M115.439 82.8287V77.0898H116.249L118.082 80.0021C118.508 80.6873 118.849 81.2869 119.105 81.8437H119.147C119.062 81.0728 119.062 80.3875 119.062 79.4881V77.0898H119.744V82.8287H119.02L117.229 79.9164C116.845 79.274 116.462 78.6316 116.163 77.9892H116.121C116.163 78.7172 116.163 79.4025 116.163 80.3447V82.7859H115.439V82.8287Z" fill="#F89728"/>
<path d="M120.98 81.9293C121.321 82.1435 121.79 82.3148 122.302 82.3148C123.069 82.3148 123.496 81.9293 123.496 81.3297C123.496 80.8158 123.197 80.4732 122.43 80.2162C121.492 79.8736 120.938 79.4025 120.938 78.5888C120.938 77.6894 121.663 77.047 122.771 77.047C123.325 77.047 123.794 77.1755 124.007 77.3468L123.794 77.9463C123.623 77.8179 123.24 77.6894 122.728 77.6894C121.961 77.6894 121.663 78.1605 121.663 78.5459C121.663 79.0599 122.004 79.3597 122.813 79.6595C123.794 80.0449 124.263 80.516 124.263 81.3297C124.263 82.2291 123.623 83 122.259 83C121.705 83 121.108 82.8287 120.81 82.6146L120.98 81.9293Z" fill="#F89728"/>
<path d="M126.011 77.0898H125.286V82.8287H126.011V77.0898Z" fill="#F89728"/>
<path d="M131.723 82.5717C131.382 82.7002 130.742 82.8715 129.975 82.8715C129.123 82.8715 128.398 82.6574 127.844 82.1006C127.332 81.6295 127.034 80.8586 127.034 79.9592C127.034 78.2461 128.227 77.0041 130.103 77.0041C130.742 77.0041 131.297 77.1326 131.552 77.2611L131.382 77.8607C131.083 77.7322 130.7 77.6037 130.103 77.6037C128.696 77.6037 127.801 78.4603 127.801 79.9164C127.801 81.3725 128.654 82.2291 130.018 82.2291C130.487 82.2291 130.828 82.1434 130.998 82.0578V80.3447H129.847V79.7451H131.723V82.5717Z" fill="#F89728"/>
<path d="M133.599 77.0898V79.4881H136.369V77.0898H137.094V82.8287H136.369V80.1305H133.599V82.8287H132.874V77.0898H133.599Z" fill="#F89728"/>
<path d="M139.524 77.7322H137.776V77.0898H141.997V77.7322H140.249V82.8287H139.524V77.7322Z" fill="#F89728"/>
<path d="M141.996 82.4004C141.996 82.1006 142.21 81.8865 142.508 81.8865C142.806 81.8865 143.02 82.1006 143.02 82.4004C143.02 82.7002 142.806 82.9572 142.508 82.9572C142.167 82.9143 141.996 82.7002 141.996 82.4004Z" fill="#F89728"/>
</svg>
